<svg xmlns="http://www.w3.org/2000/svg" xmlns:xlink="http://www.w3.org/1999/xlink" width="500" zoomAndPan="magnify" viewBox="0 0 375 149.999998" height="200" preserveAspectRatio="xMidYMid meet" version="1.0"><defs><g/><clipPath id="id1"><path d="M 22.070312 29 L 97.070312 29 L 97.070312 121.5 L 22.070312 121.5 Z M 22.070312 29 " clip-rule="nonzero"/></clipPath><clipPath id="id2"><path d="M 26 93 L 48 93 L 48 121.5 L 26 121.5 Z M 26 93 " clip-rule="nonzero"/></clipPath></defs><g clip-path="url(#id1)"><path fill="#ff914d" d="M 96.867188 106.847656 L 87.050781 48.539062 C 86.136719 42.320312 80.695312 37.632812 74.398438 37.632812 L 47.324219 37.632812 L 47.324219 40.277344 L 74.398438 40.277344 C 79.394531 40.277344 83.714844 43.996094 84.445312 48.929688 L 94.253906 107.234375 C 94.6875 110.152344 93.820312 113.113281 91.898438 115.34375 C 89.964844 117.578125 87.167969 118.867188 84.214844 118.867188 L 34.933594 118.867188 C 34.558594 118.867188 34.175781 118.847656 33.800781 118.792969 C 33.023438 118.714844 32.269531 118.527344 31.539062 118.277344 C 31.027344 119.027344 30.527344 119.777344 30.023438 120.523438 C 30.730469 120.820312 31.460938 121.054688 32.207031 121.207031 C 33.09375 121.410156 34.011719 121.507812 34.933594 121.507812 L 84.207031 121.507812 C 87.933594 121.507812 91.464844 119.886719 93.890625 117.074219 C 96.335938 114.25 97.417969 110.523438 96.867188 106.847656 Z M 28.460938 116.527344 C 28.027344 116.167969 27.625 115.773438 27.242188 115.34375 C 25.304688 113.113281 24.453125 110.152344 24.886719 107.234375 L 34.695312 41.011719 C 35.425781 36.082031 39.746094 32.359375 44.742188 32.359375 L 71.664062 32.359375 L 71.664062 29.71875 L 44.742188 29.71875 C 38.445312 29.71875 33.003906 34.40625 32.082031 40.625 L 22.269531 106.847656 C 21.722656 110.523438 22.804688 114.25 25.242188 117.066406 C 25.773438 117.679688 26.363281 118.246094 26.984375 118.730469 C 27.542969 119.175781 28.117188 119.566406 28.734375 119.902344 L 30.230469 117.714844 C 29.601562 117.382812 29.011719 116.988281 28.460938 116.527344 Z M 28.460938 116.527344 " fill-opacity="1" fill-rule="nonzero"/></g><path fill="#ff914d" d="M 71.660156 32.21875 L 47.476562 32.21875 L 47.476562 25.207031 C 47.476562 19.363281 53.640625 15 59.15625 15 C 70.972656 15 71.652344 25.796875 71.660156 25.898438 Z M 50.117188 29.578125 L 69.015625 29.578125 L 69.015625 25.964844 C 68.996094 25.691406 68.425781 17.632812 59.148438 17.632812 C 54.96875 17.632812 50.117188 20.941406 50.117188 25.199219 Z M 50.117188 29.578125 " fill-opacity="1" fill-rule="nonzero"/><g clip-path="url(#id2)"><path fill="#ff914d" d="M 47.058594 93.667969 L 43.363281 115.054688 L 39.753906 109.792969 L 33.792969 118.789062 L 32.199219 121.195312 C 31.453125 121.039062 30.722656 120.808594 30.015625 120.507812 C 30.515625 119.773438 31.019531 119.015625 31.53125 118.265625 C 34.914062 113.242188 38.144531 108.445312 38.542969 107.902344 C 39.664062 106.328125 40.574219 107.582031 40.574219 107.582031 L 42 110.054688 L 43.738281 98.445312 L 34.21875 104.847656 C 34.21875 104.847656 34.828125 104.8125 36.46875 104.921875 C 38.113281 105.039062 37.550781 106.957031 37.550781 106.957031 L 30.242188 117.695312 L 28.746094 119.882812 C 28.128906 119.546875 27.546875 119.164062 26.996094 118.710938 L 28.46875 116.507812 L 34.902344 106.949219 L 29.476562 105.136719 Z M 47.058594 93.667969 " fill-opacity="1" fill-rule="nonzero"/></g><path fill="#ff914d" d="M 46.28125 106.605469 L 45.984375 103.984375 C 47.707031 103.789062 49.257812 102.9375 50.339844 101.578125 C 51.421875 100.21875 51.90625 98.523438 51.710938 96.800781 C 51.519531 95.078125 50.664062 93.53125 49.300781 92.449219 C 47.949219 91.371094 46.25 90.882812 44.519531 91.078125 C 40.964844 91.480469 38.390625 94.703125 38.792969 98.261719 L 36.171875 98.5625 C 35.898438 96.140625 36.578125 93.753906 38.101562 91.84375 C 39.625 89.933594 41.792969 88.730469 44.222656 88.457031 C 46.652344 88.179688 49.035156 88.863281 50.949219 90.386719 C 52.859375 91.90625 54.058594 94.074219 54.335938 96.503906 C 54.613281 98.921875 53.925781 101.3125 52.40625 103.222656 C 50.875 105.125 48.707031 106.328125 46.28125 106.605469 Z M 46.28125 106.605469 " fill-opacity="1" fill-rule="nonzero"/><g fill="#004aad" fill-opacity="1"><g transform="translate(113.55215, 67.432504)"><g><path d="M 15.640625 -21.0625 C 16.992188 -20.695312 18.207031 -20.097656 19.28125 -19.265625 C 20.351562 -18.429688 21.257812 -17.484375 22 -16.421875 C 22.738281 -15.367188 23.300781 -14.269531 23.6875 -13.125 C 24.082031 -11.976562 24.28125 -10.910156 24.28125 -9.921875 L 24.25 -9.28125 C 24.21875 -8.519531 24.160156 -7.707031 24.078125 -6.84375 C 23.992188 -5.976562 23.738281 -5.128906 23.3125 -4.296875 C 22.882812 -3.460938 22.210938 -2.6875 21.296875 -1.96875 C 20.378906 -1.25 19.101562 -0.664062 17.46875 -0.21875 C 16.644531 0.0390625 15.898438 0.21875 15.234375 0.3125 C 14.578125 0.414062 13.9375 0.46875 13.3125 0.46875 C 12.40625 0.46875 11.503906 0.367188 10.609375 0.171875 C 9.722656 -0.0234375 8.644531 -0.296875 7.375 -0.640625 C 6.21875 -0.921875 5.226562 -1.378906 4.40625 -2.015625 C 3.582031 -2.648438 2.898438 -3.285156 2.359375 -3.921875 C 1.828125 -4.554688 1.4375 -5.117188 1.1875 -5.609375 C 0.9375 -6.109375 0.796875 -6.382812 0.765625 -6.4375 C 0.679688 -6.550781 0.640625 -6.707031 0.640625 -6.90625 C 0.640625 -7.382812 0.878906 -7.753906 1.359375 -8.015625 C 1.585938 -8.066406 1.742188 -8.09375 1.828125 -8.09375 C 2.046875 -8.09375 2.257812 -8.03125 2.46875 -7.90625 C 2.6875 -7.78125 2.835938 -7.601562 2.921875 -7.375 L 3.21875 -6.828125 C 3.414062 -6.429688 3.726562 -5.984375 4.15625 -5.484375 C 4.582031 -4.992188 5.117188 -4.5 5.765625 -4 C 6.410156 -3.507812 7.1875 -3.132812 8.09375 -2.875 C 9.28125 -2.570312 10.257812 -2.332031 11.03125 -2.15625 C 11.8125 -1.988281 12.570312 -1.90625 13.3125 -1.90625 C 14.269531 -1.90625 15.441406 -2.085938 16.828125 -2.453125 C 18.046875 -2.828125 18.992188 -3.253906 19.671875 -3.734375 C 20.347656 -4.210938 20.84375 -4.75 21.15625 -5.34375 C 21.46875 -5.9375 21.65625 -6.570312 21.71875 -7.25 C 21.789062 -7.925781 21.84375 -8.632812 21.875 -9.375 L 21.921875 -10.125 C 21.921875 -10.71875 21.769531 -11.453125 21.46875 -12.328125 C 21.175781 -13.210938 20.742188 -14.078125 20.171875 -14.921875 C 19.609375 -15.765625 18.894531 -16.539062 18.03125 -17.25 C 17.175781 -17.957031 16.179688 -18.453125 15.046875 -18.734375 C 14.285156 -18.960938 13.472656 -19.117188 12.609375 -19.203125 C 11.742188 -19.285156 10.890625 -19.367188 10.046875 -19.453125 C 9.054688 -19.535156 8.085938 -19.632812 7.140625 -19.75 C 6.191406 -19.863281 5.335938 -20.066406 4.578125 -20.359375 C 3.816406 -20.660156 3.1875 -21.070312 2.6875 -21.59375 C 2.195312 -22.113281 1.910156 -22.828125 1.828125 -23.734375 C 1.828125 -23.847656 1.816406 -23.945312 1.796875 -24.03125 C 1.785156 -24.113281 1.78125 -24.195312 1.78125 -24.28125 C 1.78125 -25.382812 2 -26.320312 2.4375 -27.09375 C 2.875 -27.875 3.410156 -28.535156 4.046875 -29.078125 C 4.679688 -29.617188 5.34375 -30.054688 6.03125 -30.390625 C 6.726562 -30.734375 7.332031 -31.015625 7.84375 -31.234375 C 8.488281 -31.546875 9.269531 -31.765625 10.1875 -31.890625 C 11.113281 -32.023438 12.113281 -32.09375 13.1875 -32.09375 C 14.144531 -32.09375 15.109375 -32.035156 16.078125 -31.921875 C 17.054688 -31.804688 18.015625 -31.632812 18.953125 -31.40625 C 19.566406 -31.269531 19.863281 -30.804688 19.84375 -30.015625 C 19.78125 -29.734375 19.617188 -29.503906 19.359375 -29.328125 C 19.109375 -29.160156 18.785156 -29.09375 18.390625 -29.125 C 17.578125 -29.34375 16.707031 -29.492188 15.78125 -29.578125 C 14.863281 -29.671875 13.984375 -29.71875 13.140625 -29.71875 C 12.234375 -29.71875 11.40625 -29.664062 10.65625 -29.5625 C 9.90625 -29.46875 9.28125 -29.304688 8.78125 -29.078125 C 8.1875 -28.828125 7.601562 -28.550781 7.03125 -28.25 C 6.46875 -27.957031 5.972656 -27.613281 5.546875 -27.21875 C 5.128906 -26.820312 4.800781 -26.351562 4.5625 -25.8125 C 4.320312 -25.28125 4.203125 -24.644531 4.203125 -23.90625 C 4.253906 -23.175781 4.804688 -22.679688 5.859375 -22.421875 C 6.921875 -22.171875 8.375 -21.972656 10.21875 -21.828125 C 11.125 -21.742188 12.035156 -21.648438 12.953125 -21.546875 C 13.867188 -21.453125 14.765625 -21.289062 15.640625 -21.0625 Z M 15.640625 -21.0625 "/></g></g></g><g fill="#004aad" fill-opacity="1"><g transform="translate(139.995691, 67.432504)"><g><path d="M 22.078125 -4.625 C 22.078125 -4.25 22.125 -3.859375 22.21875 -3.453125 C 22.320312 -3.046875 22.4375 -2.664062 22.5625 -2.3125 C 22.695312 -1.957031 22.832031 -1.628906 22.96875 -1.328125 C 23.113281 -1.035156 23.226562 -0.816406 23.3125 -0.671875 C 23.375 -0.566406 23.414062 -0.46875 23.4375 -0.375 C 23.46875 -0.289062 23.484375 -0.191406 23.484375 -0.078125 C 23.484375 0.367188 23.269531 0.707031 22.84375 0.9375 C 22.707031 1.050781 22.523438 1.109375 22.296875 1.109375 C 21.816406 1.109375 21.460938 0.910156 21.234375 0.515625 C 21.234375 0.484375 21.148438 0.3125 20.984375 0 C 20.816406 -0.3125 20.640625 -0.710938 20.453125 -1.203125 C 20.265625 -1.703125 20.09375 -2.25 19.9375 -2.84375 C 19.78125 -3.4375 19.703125 -4.03125 19.703125 -4.625 C 19.703125 -4.757812 19.695312 -4.910156 19.6875 -5.078125 C 19.675781 -5.253906 19.65625 -5.457031 19.625 -5.6875 C 19.59375 -6.050781 19.5625 -6.457031 19.53125 -6.90625 C 19.507812 -7.363281 19.5 -7.898438 19.5 -8.515625 C 19.5 -8.910156 19.46875 -9.332031 19.40625 -9.78125 C 19.351562 -10.238281 19.300781 -10.722656 19.25 -11.234375 C 19.164062 -11.910156 19.085938 -12.628906 19.015625 -13.390625 C 18.941406 -14.160156 18.90625 -14.984375 18.90625 -15.859375 C 18.90625 -16.390625 18.789062 -16.96875 18.5625 -17.59375 C 18.34375 -18.21875 18.003906 -18.789062 17.546875 -19.3125 C 17.097656 -19.832031 16.546875 -20.269531 15.890625 -20.625 C 15.242188 -20.976562 14.5 -21.15625 13.65625 -21.15625 C 12.570312 -21.15625 11.613281 -20.960938 10.78125 -20.578125 C 9.945312 -20.191406 9.21875 -19.707031 8.59375 -19.125 C 7.976562 -18.550781 7.457031 -17.914062 7.03125 -17.21875 C 6.613281 -16.53125 6.273438 -15.890625 6.015625 -15.296875 C 6.160156 -13.742188 6.34375 -12.09375 6.5625 -10.34375 C 6.789062 -8.59375 7.023438 -6.957031 7.265625 -5.4375 C 7.503906 -3.925781 7.707031 -2.660156 7.875 -1.640625 C 8.050781 -0.628906 8.140625 -0.0820312 8.140625 0 C 8.140625 0.28125 8.039062 0.535156 7.84375 0.765625 C 7.644531 0.992188 7.347656 1.132812 6.953125 1.1875 C 6.640625 1.1875 6.375 1.09375 6.15625 0.90625 C 5.945312 0.726562 5.816406 0.5 5.765625 0.21875 C 5.765625 0.125 5.703125 -0.300781 5.578125 -1.0625 C 5.453125 -1.820312 5.296875 -2.78125 5.109375 -3.9375 C 4.921875 -5.101562 4.710938 -6.398438 4.484375 -7.828125 C 4.265625 -9.253906 4.054688 -10.6875 3.859375 -12.125 C 3.234375 -12.257812 2.9375 -12.722656 2.96875 -13.515625 C 3.082031 -14.140625 3.296875 -14.863281 3.609375 -15.6875 C 3.546875 -16.300781 3.5 -16.882812 3.46875 -17.4375 C 3.445312 -17.988281 3.4375 -18.503906 3.4375 -18.984375 C 3.4375 -20.347656 3.390625 -21.789062 3.296875 -23.3125 C 3.210938 -24.84375 3.117188 -26.265625 3.015625 -27.578125 C 2.921875 -28.890625 2.820312 -29.984375 2.71875 -30.859375 C 2.625 -31.734375 2.578125 -32.203125 2.578125 -32.265625 C 2.578125 -32.566406 2.679688 -32.820312 2.890625 -33.03125 C 3.109375 -33.25 3.398438 -33.382812 3.765625 -33.4375 C 4.078125 -33.4375 4.347656 -33.335938 4.578125 -33.140625 C 4.804688 -32.941406 4.929688 -32.691406 4.953125 -32.390625 C 4.953125 -32.304688 4.992188 -31.84375 5.078125 -31 C 5.171875 -30.164062 5.269531 -29.128906 5.375 -27.890625 C 5.488281 -26.648438 5.585938 -25.285156 5.671875 -23.796875 C 5.765625 -22.316406 5.8125 -20.898438 5.8125 -19.546875 C 6.6875 -20.640625 7.765625 -21.578125 9.046875 -22.359375 C 10.335938 -23.140625 11.875 -23.53125 13.65625 -23.53125 C 14.78125 -23.53125 15.816406 -23.300781 16.765625 -22.84375 C 17.710938 -22.394531 18.515625 -21.804688 19.171875 -21.078125 C 19.835938 -20.359375 20.351562 -19.539062 20.71875 -18.625 C 21.09375 -17.707031 21.28125 -16.785156 21.28125 -15.859375 C 21.28125 -15.035156 21.3125 -14.269531 21.375 -13.5625 C 21.445312 -12.851562 21.53125 -12.175781 21.625 -11.53125 C 21.675781 -10.988281 21.726562 -10.46875 21.78125 -9.96875 C 21.84375 -9.476562 21.875 -8.992188 21.875 -8.515625 C 21.875 -7.410156 21.914062 -6.550781 22 -5.9375 C 22.03125 -5.675781 22.050781 -5.445312 22.0625 -5.25 C 22.070312 -5.050781 22.078125 -4.84375 22.078125 -4.625 Z M 22.078125 -4.625 "/></g></g></g><g fill="#004aad" fill-opacity="1"><g transform="translate(164.532246, 67.432504)"><g><path d="M 10.984375 -1.484375 C 11.515625 -1.484375 12.195312 -1.742188 13.03125 -2.265625 C 13.863281 -2.785156 14.675781 -3.519531 15.46875 -4.46875 C 16.257812 -5.414062 16.9375 -6.550781 17.5 -7.875 C 18.070312 -9.207031 18.359375 -10.691406 18.359375 -12.328125 C 18.359375 -13.910156 18.164062 -15.300781 17.78125 -16.5 C 17.394531 -17.707031 16.953125 -18.726562 16.453125 -19.5625 C 15.960938 -20.394531 15.472656 -21.019531 14.984375 -21.4375 C 14.492188 -21.863281 14.132812 -22.109375 13.90625 -22.171875 C 13.425781 -22.171875 12.992188 -22.132812 12.609375 -22.0625 C 12.222656 -21.988281 11.960938 -21.941406 11.828125 -21.921875 C 11.484375 -21.921875 11.171875 -22.0625 10.890625 -22.34375 C 10.179688 -22.0625 9.445312 -21.425781 8.6875 -20.4375 C 7.925781 -19.445312 7.21875 -18.289062 6.5625 -16.96875 C 5.914062 -15.65625 5.378906 -14.257812 4.953125 -12.78125 C 4.535156 -11.300781 4.328125 -9.9375 4.328125 -8.6875 C 4.328125 -7.382812 4.550781 -6.273438 5 -5.359375 C 5.457031 -4.441406 6.023438 -3.695312 6.703125 -3.125 C 7.378906 -2.5625 8.097656 -2.144531 8.859375 -1.875 C 9.617188 -1.613281 10.328125 -1.484375 10.984375 -1.484375 Z M 13.953125 -24.546875 C 14.546875 -24.546875 15.226562 -24.253906 16 -23.671875 C 16.78125 -23.097656 17.515625 -22.28125 18.203125 -21.21875 C 18.898438 -20.15625 19.492188 -18.875 19.984375 -17.375 C 20.484375 -15.882812 20.734375 -14.203125 20.734375 -12.328125 C 20.734375 -10.441406 20.40625 -8.691406 19.75 -7.078125 C 19.101562 -5.460938 18.289062 -4.0625 17.3125 -2.875 C 16.34375 -1.695312 15.285156 -0.773438 14.140625 -0.109375 C 12.992188 0.554688 11.941406 0.890625 10.984375 0.890625 C 9.878906 0.890625 8.789062 0.675781 7.71875 0.25 C 6.644531 -0.164062 5.679688 -0.773438 4.828125 -1.578125 C 3.984375 -2.390625 3.289062 -3.390625 2.75 -4.578125 C 2.21875 -5.765625 1.953125 -7.132812 1.953125 -8.6875 C 1.953125 -9.675781 2.078125 -10.765625 2.328125 -11.953125 C 2.585938 -13.140625 2.9375 -14.332031 3.375 -15.53125 C 3.8125 -16.738281 4.332031 -17.898438 4.9375 -19.015625 C 5.539062 -20.128906 6.195312 -21.125 6.90625 -22 C 7.613281 -22.875 8.363281 -23.570312 9.15625 -24.09375 C 9.945312 -24.613281 10.753906 -24.875 11.578125 -24.875 C 11.878906 -24.875 12.148438 -24.835938 12.390625 -24.765625 C 12.640625 -24.703125 12.863281 -24.613281 13.0625 -24.5 C 13.195312 -24.5 13.332031 -24.503906 13.46875 -24.515625 C 13.613281 -24.535156 13.773438 -24.546875 13.953125 -24.546875 Z M 13.953125 -24.546875 "/></g></g></g><g fill="#004aad" fill-opacity="1"><g transform="translate(186.56853, 67.432504)"><g><path d="M 19.03125 -9.703125 C 19.175781 -10.078125 19.269531 -10.445312 19.3125 -10.8125 C 19.351562 -11.175781 19.375 -11.539062 19.375 -11.90625 C 19.375 -12.8125 19.222656 -13.6875 18.921875 -14.53125 C 18.628906 -15.382812 18.242188 -16.171875 17.765625 -16.890625 C 17.285156 -17.609375 16.75 -18.253906 16.15625 -18.828125 C 15.5625 -19.410156 14.96875 -19.890625 14.375 -20.265625 C 13.664062 -20.660156 12.816406 -20.859375 11.828125 -20.859375 C 10.953125 -20.859375 10.03125 -20.6875 9.0625 -20.34375 C 8.101562 -20.007812 7.242188 -19.472656 6.484375 -18.734375 C 6.203125 -18.503906 5.9375 -18.390625 5.6875 -18.390625 C 5.507812 -18.390625 5.335938 -18.4375 5.171875 -18.53125 C 5.316406 -17.644531 5.472656 -16.628906 5.640625 -15.484375 C 5.804688 -14.347656 5.972656 -13.144531 6.140625 -11.875 C 6.316406 -10.601562 6.488281 -9.300781 6.65625 -7.96875 C 6.820312 -6.644531 6.960938 -5.375 7.078125 -4.15625 C 7.472656 -3.988281 7.710938 -3.660156 7.796875 -3.171875 C 7.796875 -3.148438 7.832031 -3.050781 7.90625 -2.875 C 7.976562 -2.707031 8.15625 -2.539062 8.4375 -2.375 C 8.882812 -2.125 9.378906 -2 9.921875 -2 C 10.253906 -2 10.582031 -2.039062 10.90625 -2.125 C 11.238281 -2.207031 11.546875 -2.289062 11.828125 -2.375 C 12.585938 -2.65625 13.34375 -3.054688 14.09375 -3.578125 C 14.84375 -4.097656 15.539062 -4.691406 16.1875 -5.359375 C 16.84375 -6.023438 17.414062 -6.734375 17.90625 -7.484375 C 18.40625 -8.234375 18.78125 -8.972656 19.03125 -9.703125 Z M 15.59375 -22.25 C 16.414062 -21.738281 17.203125 -21.113281 17.953125 -20.375 C 18.703125 -19.644531 19.359375 -18.828125 19.921875 -17.921875 C 20.484375 -17.023438 20.925781 -16.066406 21.25 -15.046875 C 21.582031 -14.023438 21.75 -12.976562 21.75 -11.90625 C 21.75 -10.863281 21.59375 -9.890625 21.28125 -8.984375 C 20.96875 -8.078125 20.519531 -7.171875 19.9375 -6.265625 C 19.363281 -5.367188 18.691406 -4.523438 17.921875 -3.734375 C 17.160156 -2.941406 16.320312 -2.234375 15.40625 -1.609375 C 14.488281 -0.984375 13.5625 -0.503906 12.625 -0.171875 C 11.695312 0.191406 10.796875 0.375 9.921875 0.375 C 9.015625 0.375 8.148438 0.148438 7.328125 -0.296875 L 7.328125 0.71875 C 7.328125 2.269531 7.375 3.921875 7.46875 5.671875 C 7.570312 7.429688 7.679688 9.054688 7.796875 10.546875 C 7.910156 12.046875 8.015625 13.296875 8.109375 14.296875 C 8.210938 15.304688 8.265625 15.835938 8.265625 15.890625 C 8.265625 16.203125 8.164062 16.472656 7.96875 16.703125 C 7.769531 16.929688 7.472656 17.054688 7.078125 17.078125 C 6.765625 17.078125 6.503906 16.976562 6.296875 16.78125 C 6.085938 16.582031 5.953125 16.328125 5.890625 16.015625 C 5.890625 15.992188 5.835938 15.476562 5.734375 14.46875 C 5.640625 13.46875 5.535156 12.210938 5.421875 10.703125 C 5.304688 9.191406 5.195312 7.546875 5.09375 5.765625 C 5 3.984375 4.953125 2.300781 4.953125 0.71875 C 4.953125 -0.300781 4.890625 -1.546875 4.765625 -3.015625 C 4.640625 -4.484375 4.484375 -6.015625 4.296875 -7.609375 C 4.117188 -9.203125 3.914062 -10.789062 3.6875 -12.375 C 3.457031 -13.957031 3.242188 -15.382812 3.046875 -16.65625 C 2.847656 -17.925781 2.6875 -18.960938 2.5625 -19.765625 C 2.4375 -20.578125 2.375 -21.007812 2.375 -21.0625 C 2.375 -21.71875 2.769531 -22.113281 3.5625 -22.25 C 3.875 -22.25 4.132812 -22.164062 4.34375 -22 C 4.550781 -21.832031 4.6875 -21.59375 4.75 -21.28125 L 4.875 -20.46875 C 5.894531 -21.4375 7.007812 -22.140625 8.21875 -22.578125 C 9.4375 -23.015625 10.625 -23.234375 11.78125 -23.234375 C 13.28125 -23.234375 14.550781 -22.90625 15.59375 -22.25 Z M 15.59375 -22.25 "/></g></g></g><g fill="#004aad" fill-opacity="1"><g transform="translate(209.83376, 67.432504)"><g><path d="M 15.46875 -11.40625 C 15.78125 -11.007812 16.253906 -10.472656 16.890625 -9.796875 C 17.523438 -9.117188 18.222656 -8.382812 18.984375 -7.59375 C 19.753906 -6.800781 20.539062 -5.992188 21.34375 -5.171875 C 22.144531 -4.347656 22.878906 -3.601562 23.546875 -2.9375 C 24.210938 -2.28125 24.753906 -1.734375 25.171875 -1.296875 C 25.597656 -0.859375 25.828125 -0.640625 25.859375 -0.640625 C 26.109375 -0.410156 26.234375 -0.125 26.234375 0.21875 C 26.234375 0.5 26.125 0.78125 25.90625 1.0625 C 25.613281 1.289062 25.328125 1.40625 25.046875 1.40625 C 24.710938 1.40625 24.429688 1.289062 24.203125 1.0625 C 24.148438 1 23.894531 0.742188 23.4375 0.296875 C 22.988281 -0.148438 22.425781 -0.707031 21.75 -1.375 C 21.070312 -2.039062 20.328125 -2.78125 19.515625 -3.59375 C 18.710938 -4.414062 17.921875 -5.226562 17.140625 -6.03125 C 16.367188 -6.84375 15.664062 -7.585938 15.03125 -8.265625 C 14.394531 -8.941406 13.921875 -9.492188 13.609375 -9.921875 C 12.984375 -10.679688 12.289062 -11.539062 11.53125 -12.5 C 10.769531 -13.46875 9.976562 -14.390625 9.15625 -15.265625 C 8.675781 -14.835938 8.21875 -14.410156 7.78125 -13.984375 C 7.34375 -13.566406 6.9375 -13.1875 6.5625 -12.84375 C 6.425781 -12.695312 6.242188 -12.582031 6.015625 -12.5 C 6.191406 -11.0625 6.375 -9.613281 6.5625 -8.15625 C 6.757812 -6.707031 6.941406 -5.390625 7.109375 -4.203125 C 7.285156 -3.015625 7.429688 -2.035156 7.546875 -1.265625 C 7.660156 -0.503906 7.71875 -0.0820312 7.71875 0 C 7.71875 0.3125 7.617188 0.570312 7.421875 0.78125 C 7.222656 1 6.925781 1.132812 6.53125 1.1875 C 6.25 1.1875 6 1.09375 5.78125 0.90625 C 5.570312 0.726562 5.441406 0.484375 5.390625 0.171875 C 5.390625 0.0859375 5.320312 -0.316406 5.1875 -1.046875 C 5.0625 -1.785156 4.921875 -2.707031 4.765625 -3.8125 C 4.609375 -4.914062 4.4375 -6.148438 4.25 -7.515625 C 4.070312 -8.890625 3.894531 -10.273438 3.71875 -11.671875 C 3.550781 -13.078125 3.414062 -14.414062 3.3125 -15.6875 C 3.21875 -16.957031 3.171875 -18.054688 3.171875 -18.984375 C 3.171875 -20.347656 3.128906 -21.789062 3.046875 -23.3125 C 2.960938 -24.84375 2.867188 -26.265625 2.765625 -27.578125 C 2.671875 -28.890625 2.582031 -29.984375 2.5 -30.859375 C 2.414062 -31.734375 2.375 -32.203125 2.375 -32.265625 C 2.375 -32.566406 2.476562 -32.820312 2.6875 -33.03125 C 2.90625 -33.25 3.195312 -33.382812 3.5625 -33.4375 C 3.875 -33.4375 4.140625 -33.332031 4.359375 -33.125 C 4.585938 -32.914062 4.71875 -32.65625 4.75 -32.34375 C 4.75 -32.257812 4.789062 -31.78125 4.875 -30.90625 C 4.957031 -30.03125 5.046875 -28.929688 5.140625 -27.609375 C 5.242188 -26.296875 5.335938 -24.875 5.421875 -23.34375 C 5.503906 -21.820312 5.546875 -20.367188 5.546875 -18.984375 C 5.546875 -18.484375 5.566406 -17.925781 5.609375 -17.3125 C 5.660156 -16.707031 5.710938 -16.035156 5.765625 -15.296875 C 6.109375 -15.609375 6.503906 -15.976562 6.953125 -16.40625 C 7.398438 -16.832031 7.859375 -17.25 8.328125 -17.65625 C 8.796875 -18.0625 9.253906 -18.441406 9.703125 -18.796875 C 10.160156 -19.148438 10.546875 -19.410156 10.859375 -19.578125 C 11.160156 -19.753906 11.515625 -20.050781 11.921875 -20.46875 C 12.335938 -20.894531 12.742188 -21.332031 13.140625 -21.78125 C 13.648438 -22.351562 14.148438 -22.878906 14.640625 -23.359375 C 15.140625 -23.835938 15.628906 -24.203125 16.109375 -24.453125 C 16.273438 -24.535156 16.457031 -24.578125 16.65625 -24.578125 C 17.113281 -24.578125 17.46875 -24.378906 17.71875 -23.984375 C 17.800781 -23.816406 17.84375 -23.625 17.84375 -23.40625 C 17.84375 -23.207031 17.789062 -23.015625 17.6875 -22.828125 C 17.59375 -22.640625 17.429688 -22.488281 17.203125 -22.375 C 16.898438 -22.207031 16.539062 -21.910156 16.125 -21.484375 C 15.71875 -21.066406 15.316406 -20.628906 14.921875 -20.171875 C 14.410156 -19.609375 13.914062 -19.085938 13.4375 -18.609375 C 12.957031 -18.128906 12.476562 -17.757812 12 -17.5 C 11.800781 -17.394531 11.460938 -17.15625 10.984375 -16.78125 C 11.796875 -15.875 12.59375 -14.941406 13.375 -13.984375 C 14.15625 -13.023438 14.851562 -12.164062 15.46875 -11.40625 Z M 15.46875 -11.40625 "/></g></g></g><g fill="#004aad" fill-opacity="1"><g transform="translate(233.438011, 67.432504)"><g><path d="M 3.640625 -25.34375 C 3.160156 -25.34375 2.757812 -25.503906 2.4375 -25.828125 C 2.113281 -26.160156 1.953125 -26.566406 1.953125 -27.046875 C 1.953125 -27.523438 2.113281 -27.921875 2.4375 -28.234375 C 2.757812 -28.546875 3.160156 -28.703125 3.640625 -28.703125 C 4.097656 -28.703125 4.488281 -28.546875 4.8125 -28.234375 C 5.132812 -27.921875 5.296875 -27.523438 5.296875 -27.046875 C 5.296875 -26.566406 5.132812 -26.160156 4.8125 -25.828125 C 4.488281 -25.503906 4.097656 -25.34375 3.640625 -25.34375 Z M 4.203125 -23.5625 C 4.503906 -23.5625 4.757812 -23.46875 4.96875 -23.28125 C 5.1875 -23.101562 5.328125 -22.875 5.390625 -22.59375 C 5.390625 -22.507812 5.453125 -22.070312 5.578125 -21.28125 C 5.703125 -20.488281 5.847656 -19.523438 6.015625 -18.390625 C 6.191406 -17.265625 6.351562 -16.054688 6.5 -14.765625 C 6.65625 -13.484375 6.765625 -12.332031 6.828125 -11.3125 C 6.878906 -10.320312 6.972656 -9.160156 7.109375 -7.828125 C 7.253906 -6.503906 7.410156 -5.242188 7.578125 -4.046875 C 7.753906 -2.847656 7.90625 -1.816406 8.03125 -0.953125 C 8.15625 -0.0859375 8.21875 0.367188 8.21875 0.421875 C 8.21875 0.734375 8.117188 0.992188 7.921875 1.203125 C 7.722656 1.421875 7.425781 1.554688 7.03125 1.609375 C 6.71875 1.609375 6.457031 1.515625 6.25 1.328125 C 6.039062 1.148438 5.90625 0.90625 5.84375 0.59375 C 5.84375 0.507812 5.78125 0.046875 5.65625 -0.796875 C 5.53125 -1.648438 5.378906 -2.675781 5.203125 -3.875 C 5.035156 -5.082031 4.878906 -6.347656 4.734375 -7.671875 C 4.597656 -9.003906 4.503906 -10.175781 4.453125 -11.1875 C 4.390625 -12.175781 4.28125 -13.304688 4.125 -14.578125 C 3.976562 -15.847656 3.828125 -17.046875 3.671875 -18.171875 C 3.515625 -19.304688 3.367188 -20.273438 3.234375 -21.078125 C 3.109375 -21.890625 3.046875 -22.320312 3.046875 -22.375 C 3.046875 -22.664062 3.128906 -22.921875 3.296875 -23.140625 C 3.472656 -23.367188 3.71875 -23.507812 4.03125 -23.5625 Z M 4.203125 -23.5625 "/></g></g></g><g fill="#004aad" fill-opacity="1"><g transform="translate(243.820491, 67.432504)"><g><path d="M 13.859375 -2.375 C 14.054688 -2.488281 14.285156 -2.546875 14.546875 -2.546875 C 14.960938 -2.546875 15.285156 -2.375 15.515625 -2.03125 C 15.648438 -1.8125 15.71875 -1.585938 15.71875 -1.359375 C 15.71875 -0.992188 15.535156 -0.664062 15.171875 -0.375 L 14.875 -0.171875 C 14.65625 -0.0234375 14.359375 0.113281 13.984375 0.25 C 13.617188 0.394531 13.203125 0.53125 12.734375 0.65625 C 12.265625 0.78125 11.765625 0.84375 11.234375 0.84375 C 10.554688 0.84375 9.734375 0.640625 8.765625 0.234375 C 7.804688 -0.171875 6.867188 -0.863281 5.953125 -1.84375 C 5.035156 -2.820312 4.222656 -4.109375 3.515625 -5.703125 C 2.804688 -7.296875 2.367188 -9.265625 2.203125 -11.609375 C 2.171875 -11.785156 2.15625 -11.945312 2.15625 -12.09375 C 2.15625 -12.25 2.15625 -12.414062 2.15625 -12.59375 C 2.15625 -14.425781 2.488281 -16.078125 3.15625 -17.546875 C 3.820312 -19.015625 4.617188 -20.265625 5.546875 -21.296875 C 6.484375 -22.328125 7.453125 -23.128906 8.453125 -23.703125 C 9.460938 -24.285156 10.316406 -24.609375 11.015625 -24.671875 C 11.160156 -24.703125 11.3125 -24.71875 11.46875 -24.71875 C 11.625 -24.71875 11.769531 -24.71875 11.90625 -24.71875 C 12.726562 -24.71875 13.441406 -24.640625 14.046875 -24.484375 C 14.660156 -24.328125 15.078125 -24.191406 15.296875 -24.078125 C 15.609375 -24.015625 15.929688 -23.789062 16.265625 -23.40625 C 16.609375 -23.03125 16.78125 -22.304688 16.78125 -21.234375 C 16.78125 -20.898438 16.660156 -20.617188 16.421875 -20.390625 C 16.179688 -20.160156 15.90625 -20.046875 15.59375 -20.046875 C 15.257812 -20.046875 14.976562 -20.160156 14.75 -20.390625 C 14.519531 -20.617188 14.40625 -20.898438 14.40625 -21.234375 C 14.40625 -21.460938 14.378906 -21.691406 14.328125 -21.921875 C 14.160156 -21.972656 13.863281 -22.054688 13.4375 -22.171875 C 13.007812 -22.285156 12.5 -22.34375 11.90625 -22.34375 C 11.789062 -22.34375 11.679688 -22.34375 11.578125 -22.34375 C 11.484375 -22.34375 11.367188 -22.328125 11.234375 -22.296875 C 10.785156 -22.242188 10.1875 -21.988281 9.4375 -21.53125 C 8.6875 -21.082031 7.945312 -20.441406 7.21875 -19.609375 C 6.5 -18.773438 5.867188 -17.765625 5.328125 -16.578125 C 4.796875 -15.390625 4.53125 -14.046875 4.53125 -12.546875 C 4.53125 -12.398438 4.53125 -12.269531 4.53125 -12.15625 C 4.53125 -12.050781 4.546875 -11.925781 4.578125 -11.78125 C 4.691406 -9.863281 5.015625 -8.253906 5.546875 -6.953125 C 6.085938 -5.648438 6.703125 -4.59375 7.390625 -3.78125 C 8.085938 -2.976562 8.78125 -2.398438 9.46875 -2.046875 C 10.164062 -1.703125 10.753906 -1.53125 11.234375 -1.53125 C 11.566406 -1.53125 11.890625 -1.570312 12.203125 -1.65625 C 12.515625 -1.738281 12.796875 -1.828125 13.046875 -1.921875 C 13.304688 -2.023438 13.507812 -2.132812 13.65625 -2.25 Z M 13.859375 -2.375 "/></g></g></g><g fill="#004aad" fill-opacity="1"><g transform="translate(261.661406, 67.432504)"><g><path d="M 22.078125 -4.625 C 22.078125 -4.25 22.125 -3.859375 22.21875 -3.453125 C 22.320312 -3.046875 22.4375 -2.664062 22.5625 -2.3125 C 22.695312 -1.957031 22.832031 -1.628906 22.96875 -1.328125 C 23.113281 -1.035156 23.226562 -0.816406 23.3125 -0.671875 C 23.375 -0.566406 23.414062 -0.46875 23.4375 -0.375 C 23.46875 -0.289062 23.484375 -0.191406 23.484375 -0.078125 C 23.484375 0.367188 23.269531 0.707031 22.84375 0.9375 C 22.707031 1.050781 22.523438 1.109375 22.296875 1.109375 C 21.816406 1.109375 21.460938 0.910156 21.234375 0.515625 C 21.234375 0.484375 21.148438 0.3125 20.984375 0 C 20.816406 -0.3125 20.640625 -0.710938 20.453125 -1.203125 C 20.265625 -1.703125 20.09375 -2.25 19.9375 -2.84375 C 19.78125 -3.4375 19.703125 -4.03125 19.703125 -4.625 C 19.703125 -4.757812 19.695312 -4.910156 19.6875 -5.078125 C 19.675781 -5.253906 19.65625 -5.457031 19.625 -5.6875 C 19.59375 -6.050781 19.5625 -6.457031 19.53125 -6.90625 C 19.507812 -7.363281 19.5 -7.898438 19.5 -8.515625 C 19.5 -8.910156 19.46875 -9.332031 19.40625 -9.78125 C 19.351562 -10.238281 19.300781 -10.722656 19.25 -11.234375 C 19.164062 -11.910156 19.085938 -12.628906 19.015625 -13.390625 C 18.941406 -14.160156 18.90625 -14.984375 18.90625 -15.859375 C 18.90625 -16.390625 18.789062 -16.96875 18.5625 -17.59375 C 18.34375 -18.21875 18.003906 -18.789062 17.546875 -19.3125 C 17.097656 -19.832031 16.546875 -20.269531 15.890625 -20.625 C 15.242188 -20.976562 14.5 -21.15625 13.65625 -21.15625 C 12.570312 -21.15625 11.613281 -20.960938 10.78125 -20.578125 C 9.945312 -20.191406 9.21875 -19.707031 8.59375 -19.125 C 7.976562 -18.550781 7.457031 -17.914062 7.03125 -17.21875 C 6.613281 -16.53125 6.273438 -15.890625 6.015625 -15.296875 C 6.160156 -13.742188 6.34375 -12.09375 6.5625 -10.34375 C 6.789062 -8.59375 7.023438 -6.957031 7.265625 -5.4375 C 7.503906 -3.925781 7.707031 -2.660156 7.875 -1.640625 C 8.050781 -0.628906 8.140625 -0.0820312 8.140625 0 C 8.140625 0.28125 8.039062 0.535156 7.84375 0.765625 C 7.644531 0.992188 7.347656 1.132812 6.953125 1.1875 C 6.640625 1.1875 6.375 1.09375 6.15625 0.90625 C 5.945312 0.726562 5.816406 0.5 5.765625 0.21875 C 5.765625 0.125 5.703125 -0.300781 5.578125 -1.0625 C 5.453125 -1.820312 5.296875 -2.78125 5.109375 -3.9375 C 4.921875 -5.101562 4.710938 -6.398438 4.484375 -7.828125 C 4.265625 -9.253906 4.054688 -10.6875 3.859375 -12.125 C 3.234375 -12.257812 2.9375 -12.722656 2.96875 -13.515625 C 3.082031 -14.140625 3.296875 -14.863281 3.609375 -15.6875 C 3.546875 -16.300781 3.5 -16.882812 3.46875 -17.4375 C 3.445312 -17.988281 3.4375 -18.503906 3.4375 -18.984375 C 3.4375 -20.347656 3.390625 -21.789062 3.296875 -23.3125 C 3.210938 -24.84375 3.117188 -26.265625 3.015625 -27.578125 C 2.921875 -28.890625 2.820312 -29.984375 2.71875 -30.859375 C 2.625 -31.734375 2.578125 -32.203125 2.578125 -32.265625 C 2.578125 -32.566406 2.679688 -32.820312 2.890625 -33.03125 C 3.109375 -33.25 3.398438 -33.382812 3.765625 -33.4375 C 4.078125 -33.4375 4.347656 -33.335938 4.578125 -33.140625 C 4.804688 -32.941406 4.929688 -32.691406 4.953125 -32.390625 C 4.953125 -32.304688 4.992188 -31.84375 5.078125 -31 C 5.171875 -30.164062 5.269531 -29.128906 5.375 -27.890625 C 5.488281 -26.648438 5.585938 -25.285156 5.671875 -23.796875 C 5.765625 -22.316406 5.8125 -20.898438 5.8125 -19.546875 C 6.6875 -20.640625 7.765625 -21.578125 9.046875 -22.359375 C 10.335938 -23.140625 11.875 -23.53125 13.65625 -23.53125 C 14.78125 -23.53125 15.816406 -23.300781 16.765625 -22.84375 C 17.710938 -22.394531 18.515625 -21.804688 19.171875 -21.078125 C 19.835938 -20.359375 20.351562 -19.539062 20.71875 -18.625 C 21.09375 -17.707031 21.28125 -16.785156 21.28125 -15.859375 C 21.28125 -15.035156 21.3125 -14.269531 21.375 -13.5625 C 21.445312 -12.851562 21.53125 -12.175781 21.625 -11.53125 C 21.675781 -10.988281 21.726562 -10.46875 21.78125 -9.96875 C 21.84375 -9.476562 21.875 -8.992188 21.875 -8.515625 C 21.875 -7.410156 21.914062 -6.550781 22 -5.9375 C 22.03125 -5.675781 22.050781 -5.445312 22.0625 -5.25 C 22.070312 -5.050781 22.078125 -4.84375 22.078125 -4.625 Z M 22.078125 -4.625 "/></g></g></g><g fill="#004aad" fill-opacity="1"><g transform="translate(286.197961, 67.432504)"><g><path d="M 22.125 -10.421875 C 22.75 -10.285156 23.0625 -9.820312 23.0625 -9.03125 C 22.914062 -8.46875 22.722656 -7.820312 22.484375 -7.09375 C 22.242188 -6.375 21.925781 -5.648438 21.53125 -4.921875 C 21.695312 -3.554688 21.851562 -2.378906 22 -1.390625 C 22.144531 -0.410156 22.226562 0.132812 22.25 0.25 C 22.25 0.5625 22.148438 0.820312 21.953125 1.03125 C 21.753906 1.25 21.457031 1.382812 21.0625 1.4375 C 20.75 1.4375 20.488281 1.34375 20.28125 1.15625 C 20.070312 0.976562 19.9375 0.734375 19.875 0.421875 C 19.875 0.367188 19.835938 0.125 19.765625 -0.3125 C 19.703125 -0.75 19.628906 -1.3125 19.546875 -2 C 18.671875 -1.007812 17.625 -0.191406 16.40625 0.453125 C 15.1875 1.109375 13.773438 1.4375 12.171875 1.4375 C 11.003906 1.4375 9.941406 1.203125 8.984375 0.734375 C 8.023438 0.273438 7.207031 -0.332031 6.53125 -1.09375 C 5.851562 -1.863281 5.328125 -2.722656 4.953125 -3.671875 C 4.585938 -4.617188 4.40625 -5.582031 4.40625 -6.5625 C 4.40625 -7.414062 4.367188 -8.222656 4.296875 -8.984375 C 4.234375 -9.742188 4.15625 -10.453125 4.0625 -11.109375 C 4.007812 -11.671875 3.953125 -12.210938 3.890625 -12.734375 C 3.835938 -13.253906 3.8125 -13.769531 3.8125 -14.28125 C 3.8125 -14.851562 3.796875 -15.363281 3.765625 -15.8125 C 3.742188 -16.257812 3.703125 -16.65625 3.640625 -17 C 3.617188 -17.25 3.597656 -17.476562 3.578125 -17.6875 C 3.566406 -17.90625 3.5625 -18.128906 3.5625 -18.359375 C 3.5625 -18.753906 3.507812 -19.160156 3.40625 -19.578125 C 3.3125 -20.003906 3.195312 -20.40625 3.0625 -20.78125 C 2.9375 -21.164062 2.800781 -21.515625 2.65625 -21.828125 C 2.519531 -22.140625 2.410156 -22.378906 2.328125 -22.546875 C 2.210938 -22.691406 2.15625 -22.878906 2.15625 -23.109375 C 2.15625 -23.585938 2.367188 -23.9375 2.796875 -24.15625 C 2.960938 -24.238281 3.144531 -24.28125 3.34375 -24.28125 C 3.820312 -24.28125 4.175781 -24.085938 4.40625 -23.703125 C 4.40625 -23.671875 4.488281 -23.488281 4.65625 -23.15625 C 4.832031 -22.832031 5.007812 -22.414062 5.1875 -21.90625 C 5.375 -21.40625 5.546875 -20.84375 5.703125 -20.21875 C 5.859375 -19.59375 5.9375 -18.972656 5.9375 -18.359375 C 5.9375 -18.210938 5.941406 -18.039062 5.953125 -17.84375 C 5.972656 -17.644531 5.992188 -17.429688 6.015625 -17.203125 C 6.078125 -16.835938 6.117188 -16.421875 6.140625 -15.953125 C 6.171875 -15.492188 6.1875 -14.9375 6.1875 -14.28125 C 6.1875 -13.863281 6.210938 -13.421875 6.265625 -12.953125 C 6.328125 -12.484375 6.382812 -11.96875 6.4375 -11.40625 C 6.5 -10.664062 6.570312 -9.898438 6.65625 -9.109375 C 6.738281 -8.316406 6.78125 -7.46875 6.78125 -6.5625 C 6.78125 -5.976562 6.898438 -5.359375 7.140625 -4.703125 C 7.378906 -4.054688 7.722656 -3.445312 8.171875 -2.875 C 8.628906 -2.3125 9.191406 -1.847656 9.859375 -1.484375 C 10.523438 -1.117188 11.296875 -0.9375 12.171875 -0.9375 C 13.046875 -0.9375 13.832031 -1.0625 14.53125 -1.3125 C 15.238281 -1.570312 15.875 -1.910156 16.4375 -2.328125 C 17.007812 -2.753906 17.515625 -3.226562 17.953125 -3.75 C 18.390625 -4.269531 18.765625 -4.816406 19.078125 -5.390625 C 18.929688 -6.429688 18.804688 -7.472656 18.703125 -8.515625 C 18.609375 -9.566406 18.535156 -10.515625 18.484375 -11.359375 C 18.421875 -12.347656 18.3125 -13.476562 18.15625 -14.75 C 18.007812 -16.019531 17.859375 -17.21875 17.703125 -18.34375 C 17.546875 -19.476562 17.398438 -20.445312 17.265625 -21.25 C 17.140625 -22.0625 17.078125 -22.492188 17.078125 -22.546875 C 17.078125 -22.828125 17.175781 -23.082031 17.375 -23.3125 C 17.570312 -23.539062 17.867188 -23.679688 18.265625 -23.734375 C 18.546875 -23.734375 18.789062 -23.640625 19 -23.453125 C 19.21875 -23.273438 19.359375 -23.046875 19.421875 -22.765625 C 19.421875 -22.679688 19.484375 -22.242188 19.609375 -21.453125 C 19.734375 -20.660156 19.878906 -19.695312 20.046875 -18.5625 C 20.210938 -17.4375 20.375 -16.226562 20.53125 -14.9375 C 20.6875 -13.65625 20.796875 -12.503906 20.859375 -11.484375 C 20.859375 -11.253906 20.863281 -11.019531 20.875 -10.78125 C 20.882812 -10.539062 20.90625 -10.28125 20.9375 -10 C 21.082031 -10.144531 21.238281 -10.257812 21.40625 -10.34375 C 21.570312 -10.425781 21.8125 -10.453125 22.125 -10.421875 Z M 22.125 -10.421875 "/></g></g></g><g fill="#004aad" fill-opacity="1"><g transform="translate(109.512646, 99.534445)"><g><path d="M 7.28125 -1.59375 C 7.351562 -1.664062 7.441406 -1.703125 7.546875 -1.703125 C 7.648438 -1.703125 7.738281 -1.671875 7.8125 -1.609375 C 7.882812 -1.523438 7.921875 -1.429688 7.921875 -1.328125 C 7.921875 -1.222656 7.882812 -1.140625 7.8125 -1.078125 C 7.8125 -1.066406 7.742188 -1 7.609375 -0.875 C 7.472656 -0.757812 7.289062 -0.632812 7.0625 -0.5 C 6.832031 -0.363281 6.554688 -0.238281 6.234375 -0.125 C 5.910156 -0.0078125 5.546875 0.046875 5.140625 0.046875 C 4.660156 0.046875 4.144531 -0.046875 3.59375 -0.234375 C 3.050781 -0.421875 2.539062 -0.722656 2.0625 -1.140625 C 1.59375 -1.554688 1.203125 -2.09375 0.890625 -2.75 C 0.578125 -3.414062 0.421875 -4.234375 0.421875 -5.203125 C 0.421875 -5.503906 0.425781 -5.765625 0.4375 -5.984375 C 0.457031 -6.203125 0.488281 -6.398438 0.53125 -6.578125 C 0.570312 -6.753906 0.617188 -6.914062 0.671875 -7.0625 C 0.734375 -7.207031 0.804688 -7.347656 0.890625 -7.484375 C 0.898438 -7.492188 0.96875 -7.597656 1.09375 -7.796875 C 1.21875 -8.003906 1.367188 -8.238281 1.546875 -8.5 C 1.722656 -8.769531 1.925781 -9.023438 2.15625 -9.265625 C 2.382812 -9.515625 2.613281 -9.695312 2.84375 -9.8125 C 3.101562 -9.925781 3.363281 -10.007812 3.625 -10.0625 C 3.894531 -10.125 4.144531 -10.15625 4.375 -10.15625 C 4.625 -10.15625 4.847656 -10.125 5.046875 -10.0625 C 5.128906 -10.050781 5.242188 -10.019531 5.390625 -9.96875 C 5.535156 -9.914062 5.679688 -9.859375 5.828125 -9.796875 C 5.984375 -9.734375 6.125 -9.664062 6.25 -9.59375 C 6.375 -9.519531 6.460938 -9.453125 6.515625 -9.390625 C 6.585938 -9.285156 6.632812 -9.164062 6.65625 -9.03125 C 6.675781 -8.894531 6.6875 -8.757812 6.6875 -8.625 C 6.6875 -8.53125 6.648438 -8.441406 6.578125 -8.359375 C 6.515625 -8.285156 6.425781 -8.25 6.3125 -8.25 C 6.21875 -8.25 6.128906 -8.285156 6.046875 -8.359375 C 5.972656 -8.441406 5.9375 -8.53125 5.9375 -8.625 C 5.9375 -8.675781 5.9375 -8.726562 5.9375 -8.78125 C 5.9375 -8.832031 5.929688 -8.878906 5.921875 -8.921875 C 5.828125 -8.960938 5.675781 -9.03125 5.46875 -9.125 C 5.257812 -9.21875 5.054688 -9.285156 4.859375 -9.328125 C 4.785156 -9.347656 4.710938 -9.363281 4.640625 -9.375 C 4.566406 -9.382812 4.484375 -9.390625 4.390625 -9.390625 C 4.203125 -9.390625 4 -9.367188 3.78125 -9.328125 C 3.570312 -9.285156 3.375 -9.21875 3.1875 -9.125 C 3.0625 -9.0625 2.921875 -8.953125 2.765625 -8.796875 C 2.617188 -8.648438 2.46875 -8.476562 2.3125 -8.28125 C 2.164062 -8.09375 2.023438 -7.894531 1.890625 -7.6875 C 1.753906 -7.476562 1.644531 -7.285156 1.5625 -7.109375 C 1.5 -6.992188 1.441406 -6.875 1.390625 -6.75 C 1.335938 -6.632812 1.296875 -6.503906 1.265625 -6.359375 C 1.234375 -6.222656 1.207031 -6.054688 1.1875 -5.859375 C 1.175781 -5.671875 1.171875 -5.453125 1.171875 -5.203125 C 1.171875 -4.585938 1.242188 -4.050781 1.390625 -3.59375 C 1.535156 -3.132812 1.722656 -2.738281 1.953125 -2.40625 C 2.179688 -2.070312 2.441406 -1.796875 2.734375 -1.578125 C 3.035156 -1.367188 3.332031 -1.195312 3.625 -1.0625 C 3.914062 -0.9375 4.191406 -0.847656 4.453125 -0.796875 C 4.722656 -0.742188 4.953125 -0.71875 5.140625 -0.71875 C 5.460938 -0.71875 5.753906 -0.757812 6.015625 -0.84375 C 6.273438 -0.9375 6.5 -1.035156 6.6875 -1.140625 C 6.875 -1.253906 7.019531 -1.363281 7.125 -1.46875 Z M 7.28125 -1.59375 "/></g></g></g><g fill="#004aad" fill-opacity="1"><g transform="translate(124.451468, 99.534445)"><g><path d="M 7.828125 -2.96875 C 7.953125 -3.21875 8.085938 -3.546875 8.234375 -3.953125 C 8.378906 -4.367188 8.453125 -4.835938 8.453125 -5.359375 C 8.453125 -5.753906 8.394531 -6.15625 8.28125 -6.5625 C 8.164062 -6.914062 8.035156 -7.234375 7.890625 -7.515625 C 7.742188 -7.796875 7.582031 -8.046875 7.40625 -8.265625 C 7.238281 -8.492188 7.066406 -8.6875 6.890625 -8.84375 C 6.710938 -9.007812 6.546875 -9.144531 6.390625 -9.25 C 6.054688 -9.488281 5.75 -9.648438 5.46875 -9.734375 C 5.1875 -9.828125 4.945312 -9.875 4.75 -9.875 C 4.488281 -9.789062 4.269531 -9.707031 4.09375 -9.625 C 3.925781 -9.550781 3.835938 -9.515625 3.828125 -9.515625 C 3.773438 -9.484375 3.71875 -9.46875 3.65625 -9.46875 C 3.539062 -9.46875 3.453125 -9.507812 3.390625 -9.59375 C 3.066406 -9.414062 2.757812 -9.101562 2.46875 -8.65625 C 2.1875 -8.207031 1.953125 -7.65625 1.765625 -7 C 1.640625 -6.582031 1.539062 -6.160156 1.46875 -5.734375 C 1.40625 -5.304688 1.375 -4.890625 1.375 -4.484375 C 1.375 -3.910156 1.441406 -3.410156 1.578125 -2.984375 C 1.660156 -2.691406 1.769531 -2.4375 1.90625 -2.21875 C 2.039062 -2 2.191406 -1.816406 2.359375 -1.671875 C 2.523438 -1.523438 2.691406 -1.40625 2.859375 -1.3125 C 3.035156 -1.21875 3.203125 -1.140625 3.359375 -1.078125 C 3.773438 -0.929688 4.21875 -0.859375 4.6875 -0.859375 C 5.09375 -0.859375 5.484375 -0.910156 5.859375 -1.015625 C 6.140625 -1.097656 6.460938 -1.300781 6.828125 -1.625 C 7.191406 -1.945312 7.523438 -2.394531 7.828125 -2.96875 Z M 6.828125 -9.859375 C 7.003906 -9.734375 7.191406 -9.578125 7.390625 -9.390625 C 7.597656 -9.203125 7.800781 -8.976562 8 -8.71875 C 8.207031 -8.46875 8.394531 -8.179688 8.5625 -7.859375 C 8.738281 -7.546875 8.890625 -7.1875 9.015625 -6.78125 C 9.148438 -6.3125 9.21875 -5.835938 9.21875 -5.359375 C 9.21875 -4.890625 9.15625 -4.425781 9.03125 -3.96875 C 8.90625 -3.507812 8.726562 -3.054688 8.5 -2.609375 C 8.175781 -2.035156 7.796875 -1.535156 7.359375 -1.109375 C 6.929688 -0.691406 6.503906 -0.421875 6.078125 -0.296875 C 5.617188 -0.160156 5.15625 -0.09375 4.6875 -0.09375 C 4.144531 -0.09375 3.617188 -0.179688 3.109375 -0.359375 C 2.910156 -0.429688 2.703125 -0.53125 2.484375 -0.65625 C 2.265625 -0.78125 2.050781 -0.9375 1.84375 -1.125 C 1.632812 -1.3125 1.441406 -1.535156 1.265625 -1.796875 C 1.085938 -2.066406 0.945312 -2.390625 0.84375 -2.765625 C 0.695312 -3.253906 0.625 -3.828125 0.625 -4.484375 C 0.625 -4.921875 0.65625 -5.367188 0.71875 -5.828125 C 0.789062 -6.296875 0.894531 -6.757812 1.03125 -7.21875 C 1.28125 -8.082031 1.609375 -8.789062 2.015625 -9.34375 C 2.429688 -9.894531 2.882812 -10.25 3.375 -10.40625 C 3.507812 -10.4375 3.648438 -10.453125 3.796875 -10.453125 C 3.835938 -10.453125 3.878906 -10.453125 3.921875 -10.453125 C 3.972656 -10.453125 4.019531 -10.445312 4.0625 -10.4375 C 4.175781 -10.476562 4.335938 -10.53125 4.546875 -10.59375 C 4.628906 -10.625 4.734375 -10.640625 4.859375 -10.640625 C 5.128906 -10.640625 5.4375 -10.570312 5.78125 -10.4375 C 6.132812 -10.300781 6.484375 -10.109375 6.828125 -9.859375 Z M 6.828125 -9.859375 "/></g></g></g><g fill="#004aad" fill-opacity="1"><g transform="translate(141.233063, 99.534445)"><g><path d="M 10.9375 -5.375 C 10.9375 -5.207031 10.945312 -4.960938 10.96875 -4.640625 C 10.988281 -4.328125 11.015625 -3.984375 11.046875 -3.609375 C 11.078125 -3.234375 11.109375 -2.847656 11.140625 -2.453125 C 11.179688 -2.066406 11.21875 -1.710938 11.25 -1.390625 C 11.28125 -1.066406 11.304688 -0.796875 11.328125 -0.578125 C 11.359375 -0.367188 11.375 -0.257812 11.375 -0.25 C 11.375 -0.15625 11.335938 -0.0703125 11.265625 0 C 11.203125 0.0703125 11.109375 0.113281 10.984375 0.125 C 10.890625 0.125 10.804688 0.09375 10.734375 0.03125 C 10.671875 -0.03125 10.628906 -0.113281 10.609375 -0.21875 C 10.609375 -0.238281 10.597656 -0.359375 10.578125 -0.578125 C 10.554688 -0.796875 10.53125 -1.066406 10.5 -1.390625 C 10.46875 -1.710938 10.429688 -2.066406 10.390625 -2.453125 C 10.359375 -2.835938 10.328125 -3.21875 10.296875 -3.59375 C 10.265625 -3.96875 10.234375 -4.3125 10.203125 -4.625 C 10.179688 -4.945312 10.171875 -5.195312 10.171875 -5.375 C 10.171875 -5.5625 10.164062 -5.789062 10.15625 -6.0625 C 10.15625 -6.34375 10.140625 -6.632812 10.109375 -6.9375 C 10.085938 -7.238281 10.0625 -7.546875 10.03125 -7.859375 C 10.007812 -8.179688 9.984375 -8.484375 9.953125 -8.765625 C 9.742188 -8.398438 9.503906 -8.03125 9.234375 -7.65625 C 8.972656 -7.28125 8.738281 -6.941406 8.53125 -6.640625 C 8.445312 -6.515625 8.328125 -6.320312 8.171875 -6.0625 C 8.015625 -5.8125 7.847656 -5.53125 7.671875 -5.21875 C 7.492188 -4.914062 7.316406 -4.601562 7.140625 -4.28125 C 6.972656 -3.96875 6.8125 -3.675781 6.65625 -3.40625 C 6.507812 -3.144531 6.390625 -2.925781 6.296875 -2.75 C 6.203125 -2.582031 6.15625 -2.5 6.15625 -2.5 C 6.082031 -2.363281 5.972656 -2.296875 5.828125 -2.296875 C 5.765625 -2.296875 5.703125 -2.3125 5.640625 -2.34375 C 5.515625 -2.414062 5.453125 -2.53125 5.453125 -2.6875 C 5.453125 -2.75 5.460938 -2.804688 5.484375 -2.859375 L 5.6875 -3.3125 C 5.664062 -3.332031 5.59375 -3.421875 5.46875 -3.578125 C 5.34375 -3.742188 5.1875 -3.945312 5 -4.1875 C 4.8125 -4.425781 4.601562 -4.6875 4.375 -4.96875 C 4.144531 -5.257812 3.921875 -5.546875 3.703125 -5.828125 C 3.492188 -6.109375 3.300781 -6.367188 3.125 -6.609375 C 2.945312 -6.847656 2.8125 -7.039062 2.71875 -7.1875 C 2.570312 -7.4375 2.398438 -7.710938 2.203125 -8.015625 C 2.003906 -8.328125 1.800781 -8.628906 1.59375 -8.921875 C 1.632812 -8.617188 1.664062 -8.296875 1.6875 -7.953125 C 1.71875 -7.617188 1.738281 -7.289062 1.75 -6.96875 C 1.769531 -6.644531 1.785156 -6.34375 1.796875 -6.0625 C 1.816406 -5.789062 1.828125 -5.5625 1.828125 -5.375 C 1.828125 -5.207031 1.835938 -4.960938 1.859375 -4.640625 C 1.878906 -4.328125 1.90625 -3.984375 1.9375 -3.609375 C 1.96875 -3.234375 2 -2.847656 2.03125 -2.453125 C 2.070312 -2.066406 2.109375 -1.710938 2.140625 -1.390625 C 2.179688 -1.066406 2.210938 -0.796875 2.234375 -0.578125 C 2.265625 -0.367188 2.28125 -0.257812 2.28125 -0.25 C 2.28125 -0.15625 2.242188 -0.0703125 2.171875 0 C 2.109375 0.0703125 2.015625 0.113281 1.890625 0.125 C 1.796875 0.125 1.710938 0.09375 1.640625 0.03125 C 1.578125 -0.03125 1.535156 -0.113281 1.515625 -0.21875 C 1.515625 -0.238281 1.503906 -0.359375 1.484375 -0.578125 C 1.460938 -0.796875 1.429688 -1.066406 1.390625 -1.390625 C 1.359375 -1.710938 1.320312 -2.066406 1.28125 -2.453125 C 1.25 -2.835938 1.21875 -3.21875 1.1875 -3.59375 C 1.15625 -3.96875 1.128906 -4.3125 1.109375 -4.625 C 1.085938 -4.945312 1.078125 -5.195312 1.078125 -5.375 C 1.078125 -5.644531 1.0625 -5.992188 1.03125 -6.421875 C 1.007812 -6.847656 0.976562 -7.285156 0.9375 -7.734375 C 0.90625 -8.179688 0.867188 -8.609375 0.828125 -9.015625 C 0.785156 -9.421875 0.738281 -9.742188 0.6875 -9.984375 C 0.6875 -10.003906 0.6875 -10.023438 0.6875 -10.046875 C 0.695312 -10.066406 0.695312 -10.109375 0.6875 -10.171875 C 0.6875 -10.285156 0.722656 -10.378906 0.796875 -10.453125 C 0.890625 -10.523438 0.984375 -10.5625 1.078125 -10.5625 C 1.179688 -10.5625 1.269531 -10.523438 1.34375 -10.453125 C 1.507812 -10.273438 1.679688 -10.066406 1.859375 -9.828125 C 2.046875 -9.585938 2.226562 -9.335938 2.40625 -9.078125 C 2.582031 -8.828125 2.753906 -8.566406 2.921875 -8.296875 C 3.085938 -8.035156 3.238281 -7.800781 3.375 -7.59375 C 3.476562 -7.414062 3.648438 -7.160156 3.890625 -6.828125 C 4.140625 -6.503906 4.40625 -6.160156 4.6875 -5.796875 C 4.96875 -5.429688 5.238281 -5.082031 5.5 -4.75 C 5.769531 -4.425781 5.972656 -4.179688 6.109375 -4.015625 C 6.253906 -4.285156 6.414062 -4.570312 6.59375 -4.875 C 6.769531 -5.175781 6.9375 -5.46875 7.09375 -5.75 C 7.257812 -6.03125 7.414062 -6.289062 7.5625 -6.53125 C 7.707031 -6.769531 7.820312 -6.957031 7.90625 -7.09375 C 8.050781 -7.289062 8.207031 -7.507812 8.375 -7.75 C 8.550781 -7.988281 8.71875 -8.234375 8.875 -8.484375 C 9.039062 -8.734375 9.195312 -8.976562 9.34375 -9.21875 C 9.488281 -9.46875 9.601562 -9.695312 9.6875 -9.90625 C 9.707031 -9.945312 9.742188 -9.992188 9.796875 -10.046875 C 9.828125 -10.222656 9.953125 -10.328125 10.171875 -10.359375 C 10.367188 -10.359375 10.492188 -10.257812 10.546875 -10.0625 C 10.597656 -9.8125 10.644531 -9.472656 10.6875 -9.046875 C 10.738281 -8.628906 10.78125 -8.191406 10.8125 -7.734375 C 10.84375 -7.273438 10.867188 -6.832031 10.890625 -6.40625 C 10.921875 -5.976562 10.9375 -5.632812 10.9375 -5.375 Z M 10.9375 -5.375 "/></g></g></g><g fill="#004aad" fill-opacity="1"><g transform="translate(160.521375, 99.534445)"><g><path d="M 10.9375 -5.375 C 10.9375 -5.207031 10.945312 -4.960938 10.96875 -4.640625 C 10.988281 -4.328125 11.015625 -3.984375 11.046875 -3.609375 C 11.078125 -3.234375 11.109375 -2.847656 11.140625 -2.453125 C 11.179688 -2.066406 11.21875 -1.710938 11.25 -1.390625 C 11.28125 -1.066406 11.304688 -0.796875 11.328125 -0.578125 C 11.359375 -0.367188 11.375 -0.257812 11.375 -0.25 C 11.375 -0.15625 11.335938 -0.0703125 11.265625 0 C 11.203125 0.0703125 11.109375 0.113281 10.984375 0.125 C 10.890625 0.125 10.804688 0.09375 10.734375 0.03125 C 10.671875 -0.03125 10.628906 -0.113281 10.609375 -0.21875 C 10.609375 -0.238281 10.597656 -0.359375 10.578125 -0.578125 C 10.554688 -0.796875 10.53125 -1.066406 10.5 -1.390625 C 10.46875 -1.710938 10.429688 -2.066406 10.390625 -2.453125 C 10.359375 -2.835938 10.328125 -3.21875 10.296875 -3.59375 C 10.265625 -3.96875 10.234375 -4.3125 10.203125 -4.625 C 10.179688 -4.945312 10.171875 -5.195312 10.171875 -5.375 C 10.171875 -5.5625 10.164062 -5.789062 10.15625 -6.0625 C 10.15625 -6.34375 10.140625 -6.632812 10.109375 -6.9375 C 10.085938 -7.238281 10.0625 -7.546875 10.03125 -7.859375 C 10.007812 -8.179688 9.984375 -8.484375 9.953125 -8.765625 C 9.742188 -8.398438 9.503906 -8.03125 9.234375 -7.65625 C 8.972656 -7.28125 8.738281 -6.941406 8.53125 -6.640625 C 8.445312 -6.515625 8.328125 -6.320312 8.171875 -6.0625 C 8.015625 -5.8125 7.847656 -5.53125 7.671875 -5.21875 C 7.492188 -4.914062 7.316406 -4.601562 7.140625 -4.28125 C 6.972656 -3.96875 6.8125 -3.675781 6.65625 -3.40625 C 6.507812 -3.144531 6.390625 -2.925781 6.296875 -2.75 C 6.203125 -2.582031 6.15625 -2.5 6.15625 -2.5 C 6.082031 -2.363281 5.972656 -2.296875 5.828125 -2.296875 C 5.765625 -2.296875 5.703125 -2.3125 5.640625 -2.34375 C 5.515625 -2.414062 5.453125 -2.53125 5.453125 -2.6875 C 5.453125 -2.75 5.460938 -2.804688 5.484375 -2.859375 L 5.6875 -3.3125 C 5.664062 -3.332031 5.59375 -3.421875 5.46875 -3.578125 C 5.34375 -3.742188 5.1875 -3.945312 5 -4.1875 C 4.8125 -4.425781 4.601562 -4.6875 4.375 -4.96875 C 4.144531 -5.257812 3.921875 -5.546875 3.703125 -5.828125 C 3.492188 -6.109375 3.300781 -6.367188 3.125 -6.609375 C 2.945312 -6.847656 2.8125 -7.039062 2.71875 -7.1875 C 2.570312 -7.4375 2.398438 -7.710938 2.203125 -8.015625 C 2.003906 -8.328125 1.800781 -8.628906 1.59375 -8.921875 C 1.632812 -8.617188 1.664062 -8.296875 1.6875 -7.953125 C 1.71875 -7.617188 1.738281 -7.289062 1.75 -6.96875 C 1.769531 -6.644531 1.785156 -6.34375 1.796875 -6.0625 C 1.816406 -5.789062 1.828125 -5.5625 1.828125 -5.375 C 1.828125 -5.207031 1.835938 -4.960938 1.859375 -4.640625 C 1.878906 -4.328125 1.90625 -3.984375 1.9375 -3.609375 C 1.96875 -3.234375 2 -2.847656 2.03125 -2.453125 C 2.070312 -2.066406 2.109375 -1.710938 2.140625 -1.390625 C 2.179688 -1.066406 2.210938 -0.796875 2.234375 -0.578125 C 2.265625 -0.367188 2.28125 -0.257812 2.28125 -0.25 C 2.28125 -0.15625 2.242188 -0.0703125 2.171875 0 C 2.109375 0.0703125 2.015625 0.113281 1.890625 0.125 C 1.796875 0.125 1.710938 0.09375 1.640625 0.03125 C 1.578125 -0.03125 1.535156 -0.113281 1.515625 -0.21875 C 1.515625 -0.238281 1.503906 -0.359375 1.484375 -0.578125 C 1.460938 -0.796875 1.429688 -1.066406 1.390625 -1.390625 C 1.359375 -1.710938 1.320312 -2.066406 1.28125 -2.453125 C 1.25 -2.835938 1.21875 -3.21875 1.1875 -3.59375 C 1.15625 -3.96875 1.128906 -4.3125 1.109375 -4.625 C 1.085938 -4.945312 1.078125 -5.195312 1.078125 -5.375 C 1.078125 -5.644531 1.0625 -5.992188 1.03125 -6.421875 C 1.007812 -6.847656 0.976562 -7.285156 0.9375 -7.734375 C 0.90625 -8.179688 0.867188 -8.609375 0.828125 -9.015625 C 0.785156 -9.421875 0.738281 -9.742188 0.6875 -9.984375 C 0.6875 -10.003906 0.6875 -10.023438 0.6875 -10.046875 C 0.695312 -10.066406 0.695312 -10.109375 0.6875 -10.171875 C 0.6875 -10.285156 0.722656 -10.378906 0.796875 -10.453125 C 0.890625 -10.523438 0.984375 -10.5625 1.078125 -10.5625 C 1.179688 -10.5625 1.269531 -10.523438 1.34375 -10.453125 C 1.507812 -10.273438 1.679688 -10.066406 1.859375 -9.828125 C 2.046875 -9.585938 2.226562 -9.335938 2.40625 -9.078125 C 2.582031 -8.828125 2.753906 -8.566406 2.921875 -8.296875 C 3.085938 -8.035156 3.238281 -7.800781 3.375 -7.59375 C 3.476562 -7.414062 3.648438 -7.160156 3.890625 -6.828125 C 4.140625 -6.503906 4.40625 -6.160156 4.6875 -5.796875 C 4.96875 -5.429688 5.238281 -5.082031 5.5 -4.75 C 5.769531 -4.425781 5.972656 -4.179688 6.109375 -4.015625 C 6.253906 -4.285156 6.414062 -4.570312 6.59375 -4.875 C 6.769531 -5.175781 6.9375 -5.46875 7.09375 -5.75 C 7.257812 -6.03125 7.414062 -6.289062 7.5625 -6.53125 C 7.707031 -6.769531 7.820312 -6.957031 7.90625 -7.09375 C 8.050781 -7.289062 8.207031 -7.507812 8.375 -7.75 C 8.550781 -7.988281 8.71875 -8.234375 8.875 -8.484375 C 9.039062 -8.734375 9.195312 -8.976562 9.34375 -9.21875 C 9.488281 -9.46875 9.601562 -9.695312 9.6875 -9.90625 C 9.707031 -9.945312 9.742188 -9.992188 9.796875 -10.046875 C 9.828125 -10.222656 9.953125 -10.328125 10.171875 -10.359375 C 10.367188 -10.359375 10.492188 -10.257812 10.546875 -10.0625 C 10.597656 -9.8125 10.644531 -9.472656 10.6875 -9.046875 C 10.738281 -8.628906 10.78125 -8.191406 10.8125 -7.734375 C 10.84375 -7.273438 10.867188 -6.832031 10.890625 -6.40625 C 10.921875 -5.976562 10.9375 -5.632812 10.9375 -5.375 Z M 10.9375 -5.375 "/></g></g></g><g fill="#004aad" fill-opacity="1"><g transform="translate(179.809681, 99.534445)"><g><path d="M 7.6875 -0.6875 C 7.882812 -0.644531 7.984375 -0.5 7.984375 -0.25 C 7.960938 -0.144531 7.910156 -0.0664062 7.828125 -0.015625 C 7.753906 0.0351562 7.65625 0.0546875 7.53125 0.046875 C 7.519531 0.046875 7.304688 0.0195312 6.890625 -0.03125 C 6.484375 -0.09375 5.929688 -0.125 5.234375 -0.125 C 4.878906 -0.125 4.515625 -0.109375 4.140625 -0.078125 C 3.773438 -0.0546875 3.4375 -0.03125 3.125 0 C 2.8125 0.03125 2.550781 0.0546875 2.34375 0.078125 C 2.144531 0.109375 2.035156 0.125 2.015625 0.125 L 1.765625 0.125 C 1.660156 0.125 1.570312 0.09375 1.5 0.03125 C 1.425781 -0.03125 1.382812 -0.113281 1.375 -0.21875 C 1.375 -0.238281 1.359375 -0.359375 1.328125 -0.578125 C 1.304688 -0.796875 1.28125 -1.066406 1.25 -1.390625 C 1.21875 -1.710938 1.179688 -2.066406 1.140625 -2.453125 C 1.109375 -2.835938 1.078125 -3.21875 1.046875 -3.59375 C 1.015625 -3.96875 0.988281 -4.3125 0.96875 -4.625 C 0.945312 -4.945312 0.9375 -5.195312 0.9375 -5.375 C 0.9375 -5.644531 0.925781 -5.992188 0.90625 -6.421875 C 0.882812 -6.847656 0.851562 -7.285156 0.8125 -7.734375 C 0.78125 -8.179688 0.738281 -8.609375 0.6875 -9.015625 C 0.644531 -9.421875 0.601562 -9.742188 0.5625 -9.984375 C 0.5625 -10.078125 0.59375 -10.160156 0.65625 -10.234375 C 0.71875 -10.304688 0.8125 -10.347656 0.9375 -10.359375 C 1.132812 -10.359375 1.253906 -10.265625 1.296875 -10.078125 C 1.359375 -10.171875 1.445312 -10.226562 1.5625 -10.25 C 1.570312 -10.25 1.675781 -10.257812 1.875 -10.28125 C 2.082031 -10.3125 2.34375 -10.34375 2.65625 -10.375 C 2.96875 -10.40625 3.3125 -10.429688 3.6875 -10.453125 C 4.070312 -10.484375 4.453125 -10.5 4.828125 -10.5 C 5.566406 -10.5 6.15625 -10.46875 6.59375 -10.40625 C 7.03125 -10.34375 7.257812 -10.304688 7.28125 -10.296875 C 7.476562 -10.253906 7.578125 -10.101562 7.578125 -9.84375 C 7.523438 -9.644531 7.367188 -9.546875 7.109375 -9.546875 C 6.929688 -9.578125 6.722656 -9.609375 6.484375 -9.640625 C 6.285156 -9.660156 6.046875 -9.679688 5.765625 -9.703125 C 5.484375 -9.734375 5.171875 -9.75 4.828125 -9.75 C 4.472656 -9.75 4.109375 -9.734375 3.734375 -9.703125 C 3.367188 -9.671875 3.03125 -9.640625 2.71875 -9.609375 C 2.40625 -9.578125 2.144531 -9.546875 1.9375 -9.515625 C 1.738281 -9.492188 1.628906 -9.484375 1.609375 -9.484375 C 1.523438 -9.484375 1.445312 -9.503906 1.375 -9.546875 C 1.425781 -9.253906 1.46875 -8.910156 1.5 -8.515625 C 1.539062 -8.128906 1.570312 -7.742188 1.59375 -7.359375 C 1.625 -6.972656 1.644531 -6.601562 1.65625 -6.25 C 1.675781 -5.90625 1.6875 -5.617188 1.6875 -5.390625 C 1.769531 -5.398438 1.898438 -5.414062 2.078125 -5.4375 C 2.265625 -5.457031 2.484375 -5.476562 2.734375 -5.5 C 2.984375 -5.53125 3.253906 -5.550781 3.546875 -5.5625 C 3.847656 -5.582031 4.15625 -5.601562 4.46875 -5.625 C 4.570312 -5.625 4.660156 -5.585938 4.734375 -5.515625 C 4.804688 -5.441406 4.84375 -5.351562 4.84375 -5.25 C 4.84375 -5.144531 4.804688 -5.050781 4.734375 -4.96875 C 4.671875 -4.894531 4.585938 -4.859375 4.484375 -4.859375 C 4.160156 -4.847656 3.835938 -4.828125 3.515625 -4.796875 C 3.191406 -4.773438 2.90625 -4.753906 2.65625 -4.734375 C 2.40625 -4.710938 2.191406 -4.691406 2.015625 -4.671875 C 1.847656 -4.648438 1.75 -4.640625 1.71875 -4.640625 C 1.738281 -4.328125 1.765625 -3.984375 1.796875 -3.609375 C 1.835938 -3.234375 1.875 -2.859375 1.90625 -2.484375 C 1.945312 -2.109375 1.984375 -1.757812 2.015625 -1.4375 C 2.046875 -1.113281 2.070312 -0.851562 2.09375 -0.65625 C 2.207031 -0.65625 2.375 -0.671875 2.59375 -0.703125 C 2.8125 -0.734375 3.066406 -0.757812 3.359375 -0.78125 C 3.648438 -0.8125 3.953125 -0.832031 4.265625 -0.84375 C 4.585938 -0.863281 4.910156 -0.875 5.234375 -0.875 C 5.972656 -0.875 6.5625 -0.84375 7 -0.78125 C 7.4375 -0.71875 7.664062 -0.6875 7.6875 -0.6875 Z M 7.6875 -0.6875 "/></g></g></g><g fill="#004aad" fill-opacity="1"><g transform="translate(194.73495, 99.534445)"><g><path d="M 2.609375 -5 C 2.796875 -4.988281 2.988281 -4.984375 3.1875 -4.984375 C 3.382812 -4.984375 3.578125 -4.984375 3.765625 -4.984375 C 4.140625 -4.984375 4.484375 -4.992188 4.796875 -5.015625 C 5.117188 -5.035156 5.394531 -5.078125 5.625 -5.140625 C 5.9375 -5.222656 6.179688 -5.328125 6.359375 -5.453125 C 6.535156 -5.578125 6.664062 -5.710938 6.75 -5.859375 C 6.84375 -6.003906 6.90625 -6.160156 6.9375 -6.328125 C 6.96875 -6.492188 6.992188 -6.671875 7.015625 -6.859375 L 7.046875 -7.125 C 7.046875 -7.28125 7.015625 -7.457031 6.953125 -7.65625 C 6.898438 -7.863281 6.804688 -8.066406 6.671875 -8.265625 C 6.546875 -8.460938 6.390625 -8.640625 6.203125 -8.796875 C 6.015625 -8.960938 5.796875 -9.082031 5.546875 -9.15625 C 5.054688 -9.28125 4.632812 -9.367188 4.28125 -9.421875 C 3.925781 -9.484375 3.601562 -9.515625 3.3125 -9.515625 C 3 -9.515625 2.707031 -9.484375 2.4375 -9.421875 C 2.175781 -9.367188 1.890625 -9.304688 1.578125 -9.234375 C 1.609375 -8.929688 1.640625 -8.597656 1.671875 -8.234375 C 1.703125 -7.867188 1.726562 -7.507812 1.75 -7.15625 C 1.769531 -6.800781 1.785156 -6.460938 1.796875 -6.140625 C 1.816406 -5.828125 1.828125 -5.570312 1.828125 -5.375 C 1.828125 -5.332031 1.828125 -5.28125 1.828125 -5.21875 C 1.828125 -5.15625 1.832031 -5.085938 1.84375 -5.015625 C 1.96875 -5.015625 2.09375 -5.015625 2.21875 -5.015625 C 2.34375 -5.015625 2.472656 -5.007812 2.609375 -5 Z M 7.21875 -2.28125 C 7.6875 -1.707031 8.035156 -1.226562 8.265625 -0.84375 C 8.492188 -0.46875 8.613281 -0.269531 8.625 -0.25 C 8.644531 -0.195312 8.65625 -0.140625 8.65625 -0.078125 C 8.65625 -0.00390625 8.640625 0.0546875 8.609375 0.109375 C 8.578125 0.171875 8.523438 0.21875 8.453125 0.25 C 8.398438 0.28125 8.34375 0.296875 8.28125 0.296875 C 8.125 0.296875 8.015625 0.226562 7.953125 0.09375 C 7.941406 0.09375 7.828125 -0.0820312 7.609375 -0.4375 C 7.398438 -0.800781 7.078125 -1.253906 6.640625 -1.796875 C 6.410156 -2.066406 6.171875 -2.335938 5.921875 -2.609375 C 5.671875 -2.878906 5.4375 -3.125 5.21875 -3.34375 C 5 -3.5625 4.816406 -3.742188 4.671875 -3.890625 L 4.4375 -4.09375 C 4.40625 -4.125 4.375 -4.171875 4.34375 -4.234375 L 3.796875 -4.234375 C 3.585938 -4.234375 3.382812 -4.234375 3.1875 -4.234375 C 2.988281 -4.234375 2.785156 -4.234375 2.578125 -4.234375 C 2.453125 -4.242188 2.332031 -4.25 2.21875 -4.25 C 2.113281 -4.25 2.003906 -4.25 1.890625 -4.25 C 1.921875 -3.851562 1.957031 -3.425781 2 -2.96875 C 2.039062 -2.519531 2.082031 -2.09375 2.125 -1.6875 C 2.164062 -1.289062 2.203125 -0.957031 2.234375 -0.6875 C 2.265625 -0.414062 2.28125 -0.269531 2.28125 -0.25 C 2.28125 -0.15625 2.242188 -0.0703125 2.171875 0 C 2.109375 0.0703125 2.015625 0.113281 1.890625 0.125 C 1.796875 0.125 1.710938 0.09375 1.640625 0.03125 C 1.578125 -0.03125 1.535156 -0.113281 1.515625 -0.21875 C 1.515625 -0.238281 1.503906 -0.359375 1.484375 -0.578125 C 1.460938 -0.796875 1.429688 -1.066406 1.390625 -1.390625 C 1.359375 -1.710938 1.320312 -2.066406 1.28125 -2.453125 C 1.25 -2.835938 1.21875 -3.21875 1.1875 -3.59375 C 1.15625 -3.96875 1.128906 -4.3125 1.109375 -4.625 C 1.085938 -4.945312 1.078125 -5.195312 1.078125 -5.375 C 1.078125 -5.601562 1.066406 -5.878906 1.046875 -6.203125 C 1.035156 -6.523438 1.015625 -6.867188 0.984375 -7.234375 C 0.960938 -7.597656 0.9375 -7.957031 0.90625 -8.3125 C 0.875 -8.664062 0.835938 -8.988281 0.796875 -9.28125 C 0.773438 -9.300781 0.757812 -9.328125 0.75 -9.359375 C 0.75 -9.390625 0.738281 -9.441406 0.71875 -9.515625 C 0.71875 -9.546875 0.726562 -9.585938 0.75 -9.640625 C 0.738281 -9.691406 0.726562 -9.742188 0.71875 -9.796875 C 0.71875 -9.847656 0.707031 -9.910156 0.6875 -9.984375 C 0.6875 -10.078125 0.71875 -10.160156 0.78125 -10.234375 C 0.84375 -10.304688 0.941406 -10.347656 1.078125 -10.359375 C 1.160156 -10.359375 1.238281 -10.328125 1.3125 -10.265625 C 1.382812 -10.203125 1.4375 -10.109375 1.46875 -9.984375 C 1.78125 -10.066406 2.082031 -10.132812 2.375 -10.1875 C 2.664062 -10.238281 2.976562 -10.265625 3.3125 -10.265625 C 3.632812 -10.265625 3.984375 -10.234375 4.359375 -10.171875 C 4.742188 -10.117188 5.203125 -10.023438 5.734375 -9.890625 C 6.066406 -9.796875 6.363281 -9.644531 6.625 -9.4375 C 6.882812 -9.226562 7.097656 -8.992188 7.265625 -8.734375 C 7.441406 -8.472656 7.578125 -8.203125 7.671875 -7.921875 C 7.765625 -7.640625 7.8125 -7.375 7.8125 -7.125 C 7.8125 -7.039062 7.804688 -6.976562 7.796875 -6.9375 L 7.78125 -6.78125 C 7.757812 -6.582031 7.722656 -6.375 7.671875 -6.15625 C 7.628906 -5.9375 7.546875 -5.71875 7.421875 -5.5 C 7.296875 -5.28125 7.109375 -5.070312 6.859375 -4.875 C 6.609375 -4.6875 6.265625 -4.535156 5.828125 -4.421875 C 5.753906 -4.390625 5.671875 -4.367188 5.578125 -4.359375 C 5.492188 -4.347656 5.40625 -4.332031 5.3125 -4.3125 C 5.425781 -4.195312 5.5625 -4.0625 5.71875 -3.90625 C 5.875 -3.757812 6.035156 -3.597656 6.203125 -3.421875 C 6.367188 -3.242188 6.539062 -3.054688 6.71875 -2.859375 C 6.894531 -2.671875 7.0625 -2.476562 7.21875 -2.28125 Z M 7.21875 -2.28125 "/></g></g></g><g fill="#004aad" fill-opacity="1"><g transform="translate(210.690005, 99.534445)"><g><path d="M 7.28125 -1.59375 C 7.351562 -1.664062 7.441406 -1.703125 7.546875 -1.703125 C 7.648438 -1.703125 7.738281 -1.671875 7.8125 -1.609375 C 7.882812 -1.523438 7.921875 -1.429688 7.921875 -1.328125 C 7.921875 -1.222656 7.882812 -1.140625 7.8125 -1.078125 C 7.8125 -1.066406 7.742188 -1 7.609375 -0.875 C 7.472656 -0.757812 7.289062 -0.632812 7.0625 -0.5 C 6.832031 -0.363281 6.554688 -0.238281 6.234375 -0.125 C 5.910156 -0.0078125 5.546875 0.046875 5.140625 0.046875 C 4.660156 0.046875 4.144531 -0.046875 3.59375 -0.234375 C 3.050781 -0.421875 2.539062 -0.722656 2.0625 -1.140625 C 1.59375 -1.554688 1.203125 -2.09375 0.890625 -2.75 C 0.578125 -3.414062 0.421875 -4.234375 0.421875 -5.203125 C 0.421875 -5.503906 0.425781 -5.765625 0.4375 -5.984375 C 0.457031 -6.203125 0.488281 -6.398438 0.53125 -6.578125 C 0.570312 -6.753906 0.617188 -6.914062 0.671875 -7.0625 C 0.734375 -7.207031 0.804688 -7.347656 0.890625 -7.484375 C 0.898438 -7.492188 0.96875 -7.597656 1.09375 -7.796875 C 1.21875 -8.003906 1.367188 -8.238281 1.546875 -8.5 C 1.722656 -8.769531 1.925781 -9.023438 2.15625 -9.265625 C 2.382812 -9.515625 2.613281 -9.695312 2.84375 -9.8125 C 3.101562 -9.925781 3.363281 -10.007812 3.625 -10.0625 C 3.894531 -10.125 4.144531 -10.15625 4.375 -10.15625 C 4.625 -10.15625 4.847656 -10.125 5.046875 -10.0625 C 5.128906 -10.050781 5.242188 -10.019531 5.390625 -9.96875 C 5.535156 -9.914062 5.679688 -9.859375 5.828125 -9.796875 C 5.984375 -9.734375 6.125 -9.664062 6.25 -9.59375 C 6.375 -9.519531 6.460938 -9.453125 6.515625 -9.390625 C 6.585938 -9.285156 6.632812 -9.164062 6.65625 -9.03125 C 6.675781 -8.894531 6.6875 -8.757812 6.6875 -8.625 C 6.6875 -8.53125 6.648438 -8.441406 6.578125 -8.359375 C 6.515625 -8.285156 6.425781 -8.25 6.3125 -8.25 C 6.21875 -8.25 6.128906 -8.285156 6.046875 -8.359375 C 5.972656 -8.441406 5.9375 -8.53125 5.9375 -8.625 C 5.9375 -8.675781 5.9375 -8.726562 5.9375 -8.78125 C 5.9375 -8.832031 5.929688 -8.878906 5.921875 -8.921875 C 5.828125 -8.960938 5.675781 -9.03125 5.46875 -9.125 C 5.257812 -9.21875 5.054688 -9.285156 4.859375 -9.328125 C 4.785156 -9.347656 4.710938 -9.363281 4.640625 -9.375 C 4.566406 -9.382812 4.484375 -9.390625 4.390625 -9.390625 C 4.203125 -9.390625 4 -9.367188 3.78125 -9.328125 C 3.570312 -9.285156 3.375 -9.21875 3.1875 -9.125 C 3.0625 -9.0625 2.921875 -8.953125 2.765625 -8.796875 C 2.617188 -8.648438 2.46875 -8.476562 2.3125 -8.28125 C 2.164062 -8.09375 2.023438 -7.894531 1.890625 -7.6875 C 1.753906 -7.476562 1.644531 -7.285156 1.5625 -7.109375 C 1.5 -6.992188 1.441406 -6.875 1.390625 -6.75 C 1.335938 -6.632812 1.296875 -6.503906 1.265625 -6.359375 C 1.234375 -6.222656 1.207031 -6.054688 1.1875 -5.859375 C 1.175781 -5.671875 1.171875 -5.453125 1.171875 -5.203125 C 1.171875 -4.585938 1.242188 -4.050781 1.390625 -3.59375 C 1.535156 -3.132812 1.722656 -2.738281 1.953125 -2.40625 C 2.179688 -2.070312 2.441406 -1.796875 2.734375 -1.578125 C 3.035156 -1.367188 3.332031 -1.195312 3.625 -1.0625 C 3.914062 -0.9375 4.191406 -0.847656 4.453125 -0.796875 C 4.722656 -0.742188 4.953125 -0.71875 5.140625 -0.71875 C 5.460938 -0.71875 5.753906 -0.757812 6.015625 -0.84375 C 6.273438 -0.9375 6.5 -1.035156 6.6875 -1.140625 C 6.875 -1.253906 7.019531 -1.363281 7.125 -1.46875 Z M 7.28125 -1.59375 "/></g></g></g><g fill="#004aad" fill-opacity="1"><g transform="translate(225.628824, 99.534445)"><g><path d="M 7.6875 -0.6875 C 7.882812 -0.644531 7.984375 -0.5 7.984375 -0.25 C 7.960938 -0.144531 7.910156 -0.0664062 7.828125 -0.015625 C 7.753906 0.0351562 7.65625 0.0546875 7.53125 0.046875 C 7.519531 0.046875 7.304688 0.0195312 6.890625 -0.03125 C 6.484375 -0.09375 5.929688 -0.125 5.234375 -0.125 C 4.878906 -0.125 4.515625 -0.109375 4.140625 -0.078125 C 3.773438 -0.0546875 3.4375 -0.03125 3.125 0 C 2.8125 0.03125 2.550781 0.0546875 2.34375 0.078125 C 2.144531 0.109375 2.035156 0.125 2.015625 0.125 L 1.765625 0.125 C 1.660156 0.125 1.570312 0.09375 1.5 0.03125 C 1.425781 -0.03125 1.382812 -0.113281 1.375 -0.21875 C 1.375 -0.238281 1.359375 -0.359375 1.328125 -0.578125 C 1.304688 -0.796875 1.28125 -1.066406 1.25 -1.390625 C 1.21875 -1.710938 1.179688 -2.066406 1.140625 -2.453125 C 1.109375 -2.835938 1.078125 -3.21875 1.046875 -3.59375 C 1.015625 -3.96875 0.988281 -4.3125 0.96875 -4.625 C 0.945312 -4.945312 0.9375 -5.195312 0.9375 -5.375 C 0.9375 -5.644531 0.925781 -5.992188 0.90625 -6.421875 C 0.882812 -6.847656 0.851562 -7.285156 0.8125 -7.734375 C 0.78125 -8.179688 0.738281 -8.609375 0.6875 -9.015625 C 0.644531 -9.421875 0.601562 -9.742188 0.5625 -9.984375 C 0.5625 -10.078125 0.59375 -10.160156 0.65625 -10.234375 C 0.71875 -10.304688 0.8125 -10.347656 0.9375 -10.359375 C 1.132812 -10.359375 1.253906 -10.265625 1.296875 -10.078125 C 1.359375 -10.171875 1.445312 -10.226562 1.5625 -10.25 C 1.570312 -10.25 1.675781 -10.257812 1.875 -10.28125 C 2.082031 -10.3125 2.34375 -10.34375 2.65625 -10.375 C 2.96875 -10.40625 3.3125 -10.429688 3.6875 -10.453125 C 4.070312 -10.484375 4.453125 -10.5 4.828125 -10.5 C 5.566406 -10.5 6.15625 -10.46875 6.59375 -10.40625 C 7.03125 -10.34375 7.257812 -10.304688 7.28125 -10.296875 C 7.476562 -10.253906 7.578125 -10.101562 7.578125 -9.84375 C 7.523438 -9.644531 7.367188 -9.546875 7.109375 -9.546875 C 6.929688 -9.578125 6.722656 -9.609375 6.484375 -9.640625 C 6.285156 -9.660156 6.046875 -9.679688 5.765625 -9.703125 C 5.484375 -9.734375 5.171875 -9.75 4.828125 -9.75 C 4.472656 -9.75 4.109375 -9.734375 3.734375 -9.703125 C 3.367188 -9.671875 3.03125 -9.640625 2.71875 -9.609375 C 2.40625 -9.578125 2.144531 -9.546875 1.9375 -9.515625 C 1.738281 -9.492188 1.628906 -9.484375 1.609375 -9.484375 C 1.523438 -9.484375 1.445312 -9.503906 1.375 -9.546875 C 1.425781 -9.253906 1.46875 -8.910156 1.5 -8.515625 C 1.539062 -8.128906 1.570312 -7.742188 1.59375 -7.359375 C 1.625 -6.972656 1.644531 -6.601562 1.65625 -6.25 C 1.675781 -5.90625 1.6875 -5.617188 1.6875 -5.390625 C 1.769531 -5.398438 1.898438 -5.414062 2.078125 -5.4375 C 2.265625 -5.457031 2.484375 -5.476562 2.734375 -5.5 C 2.984375 -5.53125 3.253906 -5.550781 3.546875 -5.5625 C 3.847656 -5.582031 4.15625 -5.601562 4.46875 -5.625 C 4.570312 -5.625 4.660156 -5.585938 4.734375 -5.515625 C 4.804688 -5.441406 4.84375 -5.351562 4.84375 -5.25 C 4.84375 -5.144531 4.804688 -5.050781 4.734375 -4.96875 C 4.671875 -4.894531 4.585938 -4.859375 4.484375 -4.859375 C 4.160156 -4.847656 3.835938 -4.828125 3.515625 -4.796875 C 3.191406 -4.773438 2.90625 -4.753906 2.65625 -4.734375 C 2.40625 -4.710938 2.191406 -4.691406 2.015625 -4.671875 C 1.847656 -4.648438 1.75 -4.640625 1.71875 -4.640625 C 1.738281 -4.328125 1.765625 -3.984375 1.796875 -3.609375 C 1.835938 -3.234375 1.875 -2.859375 1.90625 -2.484375 C 1.945312 -2.109375 1.984375 -1.757812 2.015625 -1.4375 C 2.046875 -1.113281 2.070312 -0.851562 2.09375 -0.65625 C 2.207031 -0.65625 2.375 -0.671875 2.59375 -0.703125 C 2.8125 -0.734375 3.066406 -0.757812 3.359375 -0.78125 C 3.648438 -0.8125 3.953125 -0.832031 4.265625 -0.84375 C 4.585938 -0.863281 4.910156 -0.875 5.234375 -0.875 C 5.972656 -0.875 6.5625 -0.84375 7 -0.78125 C 7.4375 -0.71875 7.664062 -0.6875 7.6875 -0.6875 Z M 7.6875 -0.6875 "/></g></g></g><g fill="#004aad" fill-opacity="1"><g transform="translate(240.554093, 99.534445)"><g/></g></g><g fill="#004aad" fill-opacity="1"><g transform="translate(252.105461, 99.534445)"><g><path d="M 7.28125 -1.59375 C 7.351562 -1.664062 7.441406 -1.703125 7.546875 -1.703125 C 7.648438 -1.703125 7.738281 -1.671875 7.8125 -1.609375 C 7.882812 -1.523438 7.921875 -1.429688 7.921875 -1.328125 C 7.921875 -1.222656 7.882812 -1.140625 7.8125 -1.078125 C 7.8125 -1.066406 7.742188 -1 7.609375 -0.875 C 7.472656 -0.757812 7.289062 -0.632812 7.0625 -0.5 C 6.832031 -0.363281 6.554688 -0.238281 6.234375 -0.125 C 5.910156 -0.0078125 5.546875 0.046875 5.140625 0.046875 C 4.660156 0.046875 4.144531 -0.046875 3.59375 -0.234375 C 3.050781 -0.421875 2.539062 -0.722656 2.0625 -1.140625 C 1.59375 -1.554688 1.203125 -2.09375 0.890625 -2.75 C 0.578125 -3.414062 0.421875 -4.234375 0.421875 -5.203125 C 0.421875 -5.503906 0.425781 -5.765625 0.4375 -5.984375 C 0.457031 -6.203125 0.488281 -6.398438 0.53125 -6.578125 C 0.570312 -6.753906 0.617188 -6.914062 0.671875 -7.0625 C 0.734375 -7.207031 0.804688 -7.347656 0.890625 -7.484375 C 0.898438 -7.492188 0.96875 -7.597656 1.09375 -7.796875 C 1.21875 -8.003906 1.367188 -8.238281 1.546875 -8.5 C 1.722656 -8.769531 1.925781 -9.023438 2.15625 -9.265625 C 2.382812 -9.515625 2.613281 -9.695312 2.84375 -9.8125 C 3.101562 -9.925781 3.363281 -10.007812 3.625 -10.0625 C 3.894531 -10.125 4.144531 -10.15625 4.375 -10.15625 C 4.625 -10.15625 4.847656 -10.125 5.046875 -10.0625 C 5.128906 -10.050781 5.242188 -10.019531 5.390625 -9.96875 C 5.535156 -9.914062 5.679688 -9.859375 5.828125 -9.796875 C 5.984375 -9.734375 6.125 -9.664062 6.25 -9.59375 C 6.375 -9.519531 6.460938 -9.453125 6.515625 -9.390625 C 6.585938 -9.285156 6.632812 -9.164062 6.65625 -9.03125 C 6.675781 -8.894531 6.6875 -8.757812 6.6875 -8.625 C 6.6875 -8.53125 6.648438 -8.441406 6.578125 -8.359375 C 6.515625 -8.285156 6.425781 -8.25 6.3125 -8.25 C 6.21875 -8.25 6.128906 -8.285156 6.046875 -8.359375 C 5.972656 -8.441406 5.9375 -8.53125 5.9375 -8.625 C 5.9375 -8.675781 5.9375 -8.726562 5.9375 -8.78125 C 5.9375 -8.832031 5.929688 -8.878906 5.921875 -8.921875 C 5.828125 -8.960938 5.675781 -9.03125 5.46875 -9.125 C 5.257812 -9.21875 5.054688 -9.285156 4.859375 -9.328125 C 4.785156 -9.347656 4.710938 -9.363281 4.640625 -9.375 C 4.566406 -9.382812 4.484375 -9.390625 4.390625 -9.390625 C 4.203125 -9.390625 4 -9.367188 3.78125 -9.328125 C 3.570312 -9.285156 3.375 -9.21875 3.1875 -9.125 C 3.0625 -9.0625 2.921875 -8.953125 2.765625 -8.796875 C 2.617188 -8.648438 2.46875 -8.476562 2.3125 -8.28125 C 2.164062 -8.09375 2.023438 -7.894531 1.890625 -7.6875 C 1.753906 -7.476562 1.644531 -7.285156 1.5625 -7.109375 C 1.5 -6.992188 1.441406 -6.875 1.390625 -6.75 C 1.335938 -6.632812 1.296875 -6.503906 1.265625 -6.359375 C 1.234375 -6.222656 1.207031 -6.054688 1.1875 -5.859375 C 1.175781 -5.671875 1.171875 -5.453125 1.171875 -5.203125 C 1.171875 -4.585938 1.242188 -4.050781 1.390625 -3.59375 C 1.535156 -3.132812 1.722656 -2.738281 1.953125 -2.40625 C 2.179688 -2.070312 2.441406 -1.796875 2.734375 -1.578125 C 3.035156 -1.367188 3.332031 -1.195312 3.625 -1.0625 C 3.914062 -0.9375 4.191406 -0.847656 4.453125 -0.796875 C 4.722656 -0.742188 4.953125 -0.71875 5.140625 -0.71875 C 5.460938 -0.71875 5.753906 -0.757812 6.015625 -0.84375 C 6.273438 -0.9375 6.5 -1.035156 6.6875 -1.140625 C 6.875 -1.253906 7.019531 -1.363281 7.125 -1.46875 Z M 7.28125 -1.59375 "/></g></g></g><g fill="#004aad" fill-opacity="1"><g transform="translate(267.044281, 99.534445)"><g><path d="M 7.8125 -0.6875 C 7.914062 -0.664062 7.992188 -0.617188 8.046875 -0.546875 C 8.097656 -0.472656 8.117188 -0.375 8.109375 -0.25 C 8.066406 -0.0390625 7.921875 0.0546875 7.671875 0.046875 C 7.660156 0.046875 7.445312 0.0195312 7.03125 -0.03125 C 6.625 -0.09375 6.070312 -0.125 5.375 -0.125 C 5.019531 -0.125 4.65625 -0.109375 4.28125 -0.078125 C 3.914062 -0.0546875 3.578125 -0.03125 3.265625 0 C 2.960938 0.03125 2.710938 0.0546875 2.515625 0.078125 C 2.316406 0.109375 2.210938 0.125 2.203125 0.125 C 2.191406 0.125 2.175781 0.125 2.15625 0.125 C 2.144531 0.125 2.101562 0.117188 2.03125 0.109375 C 2.007812 0.109375 1.988281 0.109375 1.96875 0.109375 C 1.957031 0.117188 1.929688 0.125 1.890625 0.125 C 1.796875 0.125 1.710938 0.09375 1.640625 0.03125 C 1.578125 -0.03125 1.535156 -0.113281 1.515625 -0.21875 C 1.515625 -0.238281 1.503906 -0.359375 1.484375 -0.578125 C 1.460938 -0.796875 1.429688 -1.066406 1.390625 -1.390625 C 1.359375 -1.710938 1.320312 -2.066406 1.28125 -2.453125 C 1.25 -2.835938 1.21875 -3.21875 1.1875 -3.59375 C 1.15625 -3.96875 1.128906 -4.3125 1.109375 -4.625 C 1.085938 -4.945312 1.078125 -5.195312 1.078125 -5.375 C 1.078125 -5.644531 1.0625 -5.992188 1.03125 -6.421875 C 1.007812 -6.847656 0.976562 -7.285156 0.9375 -7.734375 C 0.90625 -8.179688 0.867188 -8.609375 0.828125 -9.015625 C 0.785156 -9.421875 0.738281 -9.742188 0.6875 -9.984375 C 0.6875 -10.078125 0.71875 -10.160156 0.78125 -10.234375 C 0.84375 -10.304688 0.941406 -10.347656 1.078125 -10.359375 C 1.160156 -10.359375 1.238281 -10.332031 1.3125 -10.28125 C 1.382812 -10.226562 1.429688 -10.15625 1.453125 -10.0625 C 1.492188 -9.8125 1.535156 -9.472656 1.578125 -9.046875 C 1.628906 -8.628906 1.671875 -8.191406 1.703125 -7.734375 C 1.742188 -7.273438 1.773438 -6.832031 1.796875 -6.40625 C 1.816406 -5.976562 1.828125 -5.632812 1.828125 -5.375 C 1.828125 -5.15625 1.84375 -4.832031 1.875 -4.40625 C 1.90625 -3.988281 1.941406 -3.539062 1.984375 -3.0625 C 2.035156 -2.59375 2.082031 -2.132812 2.125 -1.6875 C 2.164062 -1.25 2.203125 -0.90625 2.234375 -0.65625 C 2.335938 -0.65625 2.5 -0.671875 2.71875 -0.703125 C 2.945312 -0.734375 3.203125 -0.757812 3.484375 -0.78125 C 3.773438 -0.8125 4.082031 -0.832031 4.40625 -0.84375 C 4.738281 -0.863281 5.0625 -0.875 5.375 -0.875 C 6.113281 -0.875 6.703125 -0.84375 7.140625 -0.78125 C 7.578125 -0.71875 7.800781 -0.6875 7.8125 -0.6875 Z M 7.8125 -0.6875 "/></g></g></g><g fill="#004aad" fill-opacity="1"><g transform="translate(281.766303, 99.534445)"><g><path d="M 7.828125 -2.96875 C 7.953125 -3.21875 8.085938 -3.546875 8.234375 -3.953125 C 8.378906 -4.367188 8.453125 -4.835938 8.453125 -5.359375 C 8.453125 -5.753906 8.394531 -6.15625 8.28125 -6.5625 C 8.164062 -6.914062 8.035156 -7.234375 7.890625 -7.515625 C 7.742188 -7.796875 7.582031 -8.046875 7.40625 -8.265625 C 7.238281 -8.492188 7.066406 -8.6875 6.890625 -8.84375 C 6.710938 -9.007812 6.546875 -9.144531 6.390625 -9.25 C 6.054688 -9.488281 5.75 -9.648438 5.46875 -9.734375 C 5.1875 -9.828125 4.945312 -9.875 4.75 -9.875 C 4.488281 -9.789062 4.269531 -9.707031 4.09375 -9.625 C 3.925781 -9.550781 3.835938 -9.515625 3.828125 -9.515625 C 3.773438 -9.484375 3.71875 -9.46875 3.65625 -9.46875 C 3.539062 -9.46875 3.453125 -9.507812 3.390625 -9.59375 C 3.066406 -9.414062 2.757812 -9.101562 2.46875 -8.65625 C 2.1875 -8.207031 1.953125 -7.65625 1.765625 -7 C 1.640625 -6.582031 1.539062 -6.160156 1.46875 -5.734375 C 1.40625 -5.304688 1.375 -4.890625 1.375 -4.484375 C 1.375 -3.910156 1.441406 -3.410156 1.578125 -2.984375 C 1.660156 -2.691406 1.769531 -2.4375 1.90625 -2.21875 C 2.039062 -2 2.191406 -1.816406 2.359375 -1.671875 C 2.523438 -1.523438 2.691406 -1.40625 2.859375 -1.3125 C 3.035156 -1.21875 3.203125 -1.140625 3.359375 -1.078125 C 3.773438 -0.929688 4.21875 -0.859375 4.6875 -0.859375 C 5.09375 -0.859375 5.484375 -0.910156 5.859375 -1.015625 C 6.140625 -1.097656 6.460938 -1.300781 6.828125 -1.625 C 7.191406 -1.945312 7.523438 -2.394531 7.828125 -2.96875 Z M 6.828125 -9.859375 C 7.003906 -9.734375 7.191406 -9.578125 7.390625 -9.390625 C 7.597656 -9.203125 7.800781 -8.976562 8 -8.71875 C 8.207031 -8.46875 8.394531 -8.179688 8.5625 -7.859375 C 8.738281 -7.546875 8.890625 -7.1875 9.015625 -6.78125 C 9.148438 -6.3125 9.21875 -5.835938 9.21875 -5.359375 C 9.21875 -4.890625 9.15625 -4.425781 9.03125 -3.96875 C 8.90625 -3.507812 8.726562 -3.054688 8.5 -2.609375 C 8.175781 -2.035156 7.796875 -1.535156 7.359375 -1.109375 C 6.929688 -0.691406 6.503906 -0.421875 6.078125 -0.296875 C 5.617188 -0.160156 5.15625 -0.09375 4.6875 -0.09375 C 4.144531 -0.09375 3.617188 -0.179688 3.109375 -0.359375 C 2.910156 -0.429688 2.703125 -0.53125 2.484375 -0.65625 C 2.265625 -0.78125 2.050781 -0.9375 1.84375 -1.125 C 1.632812 -1.3125 1.441406 -1.535156 1.265625 -1.796875 C 1.085938 -2.066406 0.945312 -2.390625 0.84375 -2.765625 C 0.695312 -3.253906 0.625 -3.828125 0.625 -4.484375 C 0.625 -4.921875 0.65625 -5.367188 0.71875 -5.828125 C 0.789062 -6.296875 0.894531 -6.757812 1.03125 -7.21875 C 1.28125 -8.082031 1.609375 -8.789062 2.015625 -9.34375 C 2.429688 -9.894531 2.882812 -10.25 3.375 -10.40625 C 3.507812 -10.4375 3.648438 -10.453125 3.796875 -10.453125 C 3.835938 -10.453125 3.878906 -10.453125 3.921875 -10.453125 C 3.972656 -10.453125 4.019531 -10.445312 4.0625 -10.4375 C 4.175781 -10.476562 4.335938 -10.53125 4.546875 -10.59375 C 4.628906 -10.625 4.734375 -10.640625 4.859375 -10.640625 C 5.128906 -10.640625 5.4375 -10.570312 5.78125 -10.4375 C 6.132812 -10.300781 6.484375 -10.109375 6.828125 -9.859375 Z M 6.828125 -9.859375 "/></g></g></g><g fill="#004aad" fill-opacity="1"><g transform="translate(298.547895, 99.534445)"><g><path d="M 7.859375 -9.9375 C 7.910156 -9.675781 7.960938 -9.335938 8.015625 -8.921875 C 8.066406 -8.503906 8.109375 -8.066406 8.140625 -7.609375 C 8.179688 -7.148438 8.210938 -6.707031 8.234375 -6.28125 C 8.253906 -5.863281 8.265625 -5.519531 8.265625 -5.25 C 8.265625 -5.195312 8.269531 -5.035156 8.28125 -4.765625 C 8.300781 -4.503906 8.3125 -4.203125 8.3125 -3.859375 C 8.3125 -3.523438 8.296875 -3.179688 8.265625 -2.828125 C 8.242188 -2.484375 8.191406 -2.179688 8.109375 -1.921875 C 7.972656 -1.441406 7.769531 -1.0625 7.5 -0.78125 C 7.226562 -0.5 6.921875 -0.285156 6.578125 -0.140625 C 6.242188 -0.00390625 5.90625 0.0820312 5.5625 0.125 C 5.21875 0.175781 4.898438 0.21875 4.609375 0.25 C 4.566406 0.25 4.523438 0.25 4.484375 0.25 C 4.453125 0.25 4.414062 0.25 4.375 0.25 C 3.96875 0.25 3.519531 0.164062 3.03125 0 C 2.550781 -0.164062 2.109375 -0.445312 1.703125 -0.84375 C 1.328125 -1.21875 1.0625 -1.65625 0.90625 -2.15625 C 0.75 -2.65625 0.664062 -3.195312 0.65625 -3.78125 L 0.609375 -5.234375 C 0.597656 -5.515625 0.582031 -5.867188 0.5625 -6.296875 C 0.539062 -6.722656 0.507812 -7.160156 0.46875 -7.609375 C 0.4375 -8.054688 0.394531 -8.484375 0.34375 -8.890625 C 0.300781 -9.296875 0.253906 -9.617188 0.203125 -9.859375 C 0.203125 -10.054688 0.328125 -10.1875 0.578125 -10.25 C 0.671875 -10.25 0.753906 -10.21875 0.828125 -10.15625 C 0.898438 -10.101562 0.945312 -10.03125 0.96875 -9.9375 C 1.019531 -9.675781 1.066406 -9.332031 1.109375 -8.90625 C 1.148438 -8.488281 1.1875 -8.050781 1.21875 -7.59375 C 1.257812 -7.132812 1.289062 -6.691406 1.3125 -6.265625 C 1.34375 -5.847656 1.363281 -5.507812 1.375 -5.25 L 1.40625 -3.75 L 1.40625 -3.515625 C 1.40625 -2.640625 1.6875 -1.925781 2.25 -1.375 C 2.414062 -1.226562 2.585938 -1.097656 2.765625 -0.984375 C 2.941406 -0.878906 3.125 -0.789062 3.3125 -0.71875 C 3.507812 -0.644531 3.695312 -0.585938 3.875 -0.546875 C 4.050781 -0.515625 4.21875 -0.5 4.375 -0.5 L 4.546875 -0.5 C 4.878906 -0.53125 5.195312 -0.566406 5.5 -0.609375 C 5.8125 -0.660156 6.085938 -0.742188 6.328125 -0.859375 C 6.566406 -0.984375 6.773438 -1.144531 6.953125 -1.34375 C 7.140625 -1.539062 7.285156 -1.804688 7.390625 -2.140625 C 7.460938 -2.367188 7.507812 -2.640625 7.53125 -2.953125 C 7.550781 -3.265625 7.5625 -3.570312 7.5625 -3.875 C 7.5625 -4.238281 7.550781 -4.550781 7.53125 -4.8125 C 7.507812 -5.082031 7.5 -5.226562 7.5 -5.25 C 7.5 -5.519531 7.484375 -5.863281 7.453125 -6.28125 C 7.421875 -6.707031 7.390625 -7.144531 7.359375 -7.59375 C 7.328125 -8.039062 7.289062 -8.46875 7.25 -8.875 C 7.207031 -9.289062 7.15625 -9.617188 7.09375 -9.859375 C 7.09375 -10.054688 7.222656 -10.1875 7.484375 -10.25 C 7.566406 -10.25 7.644531 -10.21875 7.71875 -10.15625 C 7.789062 -10.101562 7.835938 -10.03125 7.859375 -9.9375 Z M 7.859375 -9.9375 "/></g></g></g><g fill="#004aad" fill-opacity="1"><g transform="translate(314.638459, 99.534445)"><g><path d="M 5.265625 -0.5625 C 5.773438 -0.707031 6.1875 -0.945312 6.5 -1.28125 C 6.820312 -1.613281 7.070312 -1.992188 7.25 -2.421875 C 7.425781 -2.859375 7.546875 -3.316406 7.609375 -3.796875 C 7.671875 -4.285156 7.703125 -4.753906 7.703125 -5.203125 C 7.703125 -5.796875 7.597656 -6.328125 7.390625 -6.796875 C 7.191406 -7.265625 6.941406 -7.664062 6.640625 -8 C 6.347656 -8.34375 6.03125 -8.613281 5.6875 -8.8125 C 5.34375 -9.019531 5.03125 -9.160156 4.75 -9.234375 C 4.320312 -9.359375 3.953125 -9.441406 3.640625 -9.484375 C 3.328125 -9.523438 3.039062 -9.546875 2.78125 -9.546875 C 2.519531 -9.546875 2.269531 -9.523438 2.03125 -9.484375 C 1.800781 -9.453125 1.554688 -9.398438 1.296875 -9.328125 C 1.335938 -9.023438 1.375 -8.6875 1.40625 -8.3125 C 1.4375 -7.9375 1.460938 -7.566406 1.484375 -7.203125 C 1.515625 -6.835938 1.535156 -6.492188 1.546875 -6.171875 C 1.566406 -5.847656 1.578125 -5.582031 1.578125 -5.375 C 1.578125 -5.226562 1.582031 -5.023438 1.59375 -4.765625 C 1.613281 -4.503906 1.632812 -4.210938 1.65625 -3.890625 C 1.675781 -3.578125 1.703125 -3.25 1.734375 -2.90625 C 1.765625 -2.570312 1.796875 -2.25 1.828125 -1.9375 C 1.867188 -1.632812 1.898438 -1.351562 1.921875 -1.09375 C 1.953125 -0.84375 1.972656 -0.648438 1.984375 -0.515625 C 2.253906 -0.492188 2.535156 -0.476562 2.828125 -0.46875 C 3.117188 -0.46875 3.410156 -0.46875 3.703125 -0.46875 C 4.054688 -0.46875 4.375 -0.472656 4.65625 -0.484375 C 4.9375 -0.503906 5.140625 -0.53125 5.265625 -0.5625 Z M 4.953125 -9.96875 C 5.296875 -9.875 5.671875 -9.703125 6.078125 -9.453125 C 6.492188 -9.210938 6.878906 -8.894531 7.234375 -8.5 C 7.585938 -8.101562 7.878906 -7.628906 8.109375 -7.078125 C 8.347656 -6.535156 8.46875 -5.910156 8.46875 -5.203125 C 8.46875 -4.273438 8.375 -3.488281 8.1875 -2.84375 C 8 -2.207031 7.757812 -1.679688 7.46875 -1.265625 C 7.1875 -0.859375 6.867188 -0.539062 6.515625 -0.3125 C 6.160156 -0.09375 5.8125 0.0625 5.46875 0.15625 C 5.3125 0.207031 5.066406 0.238281 4.734375 0.25 C 4.398438 0.269531 4.050781 0.28125 3.6875 0.28125 C 3.445312 0.28125 3.210938 0.273438 2.984375 0.265625 C 2.753906 0.265625 2.546875 0.257812 2.359375 0.25 C 2.171875 0.25 2.007812 0.242188 1.875 0.234375 C 1.75 0.234375 1.660156 0.234375 1.609375 0.234375 C 1.515625 0.234375 1.429688 0.191406 1.359375 0.109375 C 1.296875 0.0234375 1.265625 -0.0820312 1.265625 -0.21875 C 1.253906 -0.238281 1.234375 -0.359375 1.203125 -0.578125 C 1.179688 -0.796875 1.15625 -1.066406 1.125 -1.390625 C 1.09375 -1.710938 1.054688 -2.066406 1.015625 -2.453125 C 0.984375 -2.835938 0.953125 -3.21875 0.921875 -3.59375 C 0.890625 -3.96875 0.863281 -4.3125 0.84375 -4.625 C 0.820312 -4.945312 0.8125 -5.195312 0.8125 -5.375 C 0.8125 -5.601562 0.800781 -5.882812 0.78125 -6.21875 C 0.769531 -6.550781 0.75 -6.898438 0.71875 -7.265625 C 0.695312 -7.628906 0.664062 -7.988281 0.625 -8.34375 C 0.59375 -8.707031 0.5625 -9.035156 0.53125 -9.328125 C 0.507812 -9.335938 0.488281 -9.363281 0.46875 -9.40625 C 0.457031 -9.445312 0.441406 -9.507812 0.421875 -9.59375 C 0.421875 -9.664062 0.429688 -9.726562 0.453125 -9.78125 C 0.453125 -9.800781 0.453125 -9.828125 0.453125 -9.859375 C 0.453125 -9.890625 0.445312 -9.929688 0.4375 -9.984375 C 0.4375 -10.078125 0.46875 -10.160156 0.53125 -10.234375 C 0.59375 -10.304688 0.6875 -10.347656 0.8125 -10.359375 C 1.007812 -10.359375 1.128906 -10.265625 1.171875 -10.078125 C 1.441406 -10.148438 1.703125 -10.207031 1.953125 -10.25 C 2.203125 -10.289062 2.476562 -10.3125 2.78125 -10.3125 C 3.0625 -10.3125 3.375 -10.285156 3.71875 -10.234375 C 4.0625 -10.179688 4.472656 -10.09375 4.953125 -9.96875 Z M 4.953125 -9.96875 "/></g></g></g></svg>